<svg preserveAspectRatio="none" width="100%" height="100%" overflow="visible" viewBox="0 0 76 76" fill="none" xmlns="http://www.w3.org/2000/svg">
  <g clip-path="url(#clip0_0_107)">
    <path d="M31.0367 15.68C32.6362 15.68 34.0563 16.7587 34.5621 18.3577L40.0132 35.5891L56.3658 41.3333C57.8831 41.8662 58.9067 43.3628 58.9068 45.0481C58.9068 46.7336 57.8831 48.23 56.3658 48.763L40.0132 54.5071L34.5621 71.7395C34.0562 73.3383 32.636 74.4163 31.0367 74.4163C29.4373 74.4163 28.0172 73.3383 27.5113 71.7395L22.0601 54.5071L5.70758 48.763C4.1903 48.2299 3.16656 46.7335 3.16656 45.0481C3.16666 43.3628 4.19029 41.8663 5.70758 41.3333L22.0601 35.5891L27.5113 18.3577C28.0171 16.7587 29.4372 15.68 31.0367 15.68ZM31.0328 48.9876C31.0345 49.0944 31.0367 49.2072 31.0367 49.3264V48.9866C31.0354 48.9869 31.0341 48.9873 31.0328 48.9876ZM60.7642 1.58328C61.7238 1.58328 62.5759 2.23044 62.8795 3.18973L65.7789 12.3538L74.4761 15.4095C75.3863 15.7294 76.0005 16.6269 76.0005 17.638C76.0005 18.649 75.3863 19.5465 74.4761 19.8665L65.7789 22.9221L62.8795 32.0862C62.5759 33.0455 61.7238 33.6927 60.7642 33.6927C59.8047 33.6925 58.9524 33.0455 58.649 32.0862L55.7505 22.9221L47.0533 19.8665C46.1431 19.5466 45.5289 18.6491 45.5289 17.638C45.5289 16.6268 46.1431 15.7294 47.0533 15.4095L55.7505 12.3538L58.649 3.18973C58.9524 2.23048 59.8047 1.58347 60.7642 1.58328Z" fill="#B14602"/>
  </g>
  <defs>
    <clipPath id="clip0_0_107">
      <rect width="76" height="76" fill="white" />
    </clipPath>
  </defs>
</svg>
