<svg width="278" height="155" viewBox="0 0 278 155" fill="none" xmlns="http://www.w3.org/2000/svg">
<mask id="path-1-outside-1_326_1608" maskUnits="userSpaceOnUse" x="5" y="50" width="266" height="73" fill="black">
<rect fill="white" x="5" y="50" width="266" height="73"/>
<path d="M8.80665 68.6364C8.80665 65.7127 9.57029 63.1382 11.0976 60.9127C12.6248 58.6436 14.7194 56.8764 17.3812 55.6109C20.0867 54.3018 23.163 53.6473 26.6103 53.6473C30.1012 53.6473 33.1121 54.2582 35.643 55.48C38.1739 56.7018 40.1157 58.4255 41.4685 60.6509C42.8648 62.8764 43.563 65.5164 43.563 68.5709H33.0248C33.0248 66.8691 32.4357 65.5382 31.2576 64.5782C30.0794 63.5745 28.4867 63.0727 26.4794 63.0727C24.3412 63.0727 22.6176 63.5309 21.3085 64.4473C20.043 65.3636 19.4103 66.6291 19.4103 68.2436C19.4103 69.7273 19.803 70.8618 20.5885 71.6473C21.3739 72.4327 22.6176 73 24.3194 73.3491L31.5848 74.8545C35.9048 75.7273 39.1121 77.2545 41.2067 79.4364C43.3012 81.5745 44.3485 84.5636 44.3485 88.4036C44.3485 91.5018 43.5848 94.2291 42.0576 96.5855C40.5303 98.8982 38.3703 100.687 35.5776 101.953C32.8285 103.218 29.5994 103.851 25.8903 103.851C22.3121 103.851 19.1703 103.24 16.4648 102.018C13.803 100.796 11.7303 99.0727 10.2467 96.8473C8.80665 94.5782 8.08665 91.9382 8.08665 88.9273H18.6248C18.6248 90.6727 19.2576 92.0255 20.523 92.9855C21.7885 93.9455 23.5994 94.4255 25.9557 94.4255C28.3557 94.4255 30.2539 93.9891 31.6503 93.1164C33.0467 92.2 33.7448 90.9782 33.7448 89.4509C33.7448 88.0982 33.3957 87.0509 32.6976 86.3091C32.043 85.5673 30.9085 85.0436 29.2939 84.7382L21.8976 83.2327C17.5776 82.36 14.3048 80.7018 12.0794 78.2582C9.89756 75.8145 8.80665 72.6073 8.80665 68.6364ZM65.0167 103.851C61.5694 103.851 58.8203 102.913 56.7694 101.036C54.7621 99.1164 53.7585 96.5636 53.7585 93.3782C53.7585 90.3673 54.7839 87.9673 56.8348 86.1782C58.9294 84.3891 61.9403 83.3418 65.8676 83.0364L75.0312 82.3164V81.7927C75.0312 80.7018 74.813 79.8073 74.3767 79.1091C73.9403 78.3673 73.3076 77.8218 72.4785 77.4727C71.693 77.08 70.6894 76.8836 69.4676 76.8836C67.3294 76.8836 65.693 77.2764 64.5585 78.0618C63.4676 78.8473 62.9221 79.9818 62.9221 81.4655H54.5439C54.5439 78.9782 55.1767 76.8182 56.4421 74.9855C57.7076 73.1527 59.4967 71.7345 61.8094 70.7309C64.1657 69.7273 66.893 69.2255 69.9912 69.2255C73.1767 69.2255 75.8603 69.7927 78.0421 70.9273C80.2676 72.0618 81.9476 73.72 83.0821 75.9018C84.2603 78.0836 84.8494 80.7455 84.8494 83.8873V103H75.9476L75.293 98.68C74.7694 100.164 73.5257 101.407 71.5621 102.411C69.6421 103.371 67.4603 103.851 65.0167 103.851ZM68.5512 96.3891C70.4712 96.3891 72.0421 95.9309 73.2639 95.0145C74.4857 94.0545 75.0967 92.6364 75.0967 90.76V88.9927L69.9912 89.4509C67.8094 89.6255 66.2603 89.9964 65.3439 90.5636C64.4712 91.0873 64.0348 91.8727 64.0348 92.92C64.0348 94.0982 64.4057 94.9709 65.1476 95.5382C65.8894 96.1055 67.0239 96.3891 68.5512 96.3891ZM97.079 118.709V70.2727H106.57L107.094 74.2655C108.01 72.7382 109.428 71.5164 111.348 70.6C113.268 69.6836 115.384 69.2255 117.697 69.2255C120.752 69.2255 123.435 69.9018 125.748 71.2545C128.061 72.6073 129.872 74.5491 131.181 77.08C132.49 79.5673 133.144 82.5782 133.144 86.1127C133.144 89.56 132.534 92.6364 131.312 95.3418C130.134 98.0036 128.388 100.098 126.075 101.625C123.806 103.153 121.035 103.916 117.763 103.916C115.494 103.916 113.399 103.524 111.479 102.738C109.559 101.953 108.119 100.949 107.159 99.7273V118.709H97.079ZM107.224 86.6364C107.224 88.2509 107.552 89.6909 108.206 90.9564C108.904 92.1782 109.843 93.1382 111.021 93.8364C112.243 94.4909 113.639 94.8182 115.21 94.8182C116.824 94.8182 118.199 94.4691 119.334 93.7709C120.512 93.0727 121.406 92.1127 122.017 90.8909C122.672 89.6691 122.999 88.2509 122.999 86.6364C122.999 85.0218 122.672 83.6036 122.017 82.3818C121.406 81.16 120.512 80.2 119.334 79.5018C118.199 78.8036 116.824 78.4545 115.21 78.4545C113.639 78.4545 112.243 78.8036 111.021 79.5018C109.843 80.1564 108.904 81.0945 108.206 82.3164C107.552 83.5382 107.224 84.9782 107.224 86.6364ZM154.027 103H143.947V53.6473H154.027V103ZM166.589 103V70.2727H176.669V103H166.589ZM171.564 65.1673C169.949 65.1673 168.574 64.6218 167.44 63.5309C166.349 62.3964 165.804 61.0218 165.804 59.4073C165.804 57.7927 166.349 56.44 167.44 55.3491C168.574 54.2582 169.949 53.7127 171.564 53.7127C173.134 53.7127 174.465 54.2582 175.556 55.3491C176.691 56.44 177.258 57.7927 177.258 59.4073C177.258 61.0218 176.691 62.3964 175.556 63.5309C174.465 64.6218 173.134 65.1673 171.564 65.1673ZM199.311 103H189.231V70.2727H198.722L199.376 73.6764C200.38 72.28 201.755 71.1891 203.5 70.4036C205.289 69.6182 207.253 69.2255 209.391 69.2255C213.275 69.2255 216.286 70.4255 218.424 72.8255C220.606 75.1818 221.696 78.4982 221.696 82.7745V103H211.616V85.1964C211.616 83.1455 211.093 81.5091 210.046 80.2873C208.998 79.0218 207.602 78.3891 205.856 78.3891C203.849 78.3891 202.256 79 201.078 80.2218C199.9 81.4 199.311 83.0145 199.311 85.0655V103ZM232.289 86.0473C232.289 82.7309 232.944 79.8073 234.253 77.2764C235.606 74.7455 237.46 72.76 239.817 71.32C242.217 69.88 244.944 69.16 247.998 69.16C250.573 69.16 252.777 69.6836 254.609 70.7309C256.486 71.7782 257.773 73.1527 258.471 74.8545L257.489 75.5091L258.275 70.2727H267.766V100.905C267.766 104.789 267.046 108.127 265.606 110.92C264.166 113.756 262.115 115.916 259.453 117.4C256.791 118.927 253.584 119.691 249.831 119.691C244.813 119.691 240.733 118.338 237.591 115.633C234.449 112.971 232.638 109.327 232.158 104.702H242.369C242.457 106.535 243.155 107.953 244.464 108.956C245.773 110.004 247.54 110.527 249.766 110.527C252.209 110.527 254.129 109.851 255.526 108.498C256.966 107.145 257.686 105.313 257.686 103V96.0618L258.798 96.9127C258.1 98.6145 256.747 99.9891 254.74 101.036C252.733 102.084 250.42 102.607 247.802 102.607C244.747 102.607 242.042 101.909 239.686 100.513C237.373 99.1164 235.562 97.1745 234.253 94.6873C232.944 92.2 232.289 89.32 232.289 86.0473ZM242.435 85.7855C242.435 87.3564 242.762 88.7527 243.417 89.9745C244.071 91.1527 244.966 92.0909 246.1 92.7891C247.235 93.4873 248.544 93.8364 250.027 93.8364C251.555 93.8364 252.886 93.5091 254.02 92.8545C255.198 92.1564 256.093 91.2182 256.704 90.04C257.358 88.8182 257.686 87.4 257.686 85.7855C257.686 84.1709 257.358 82.7964 256.704 81.6618C256.093 80.4836 255.198 79.5673 254.02 78.9127C252.886 78.2582 251.533 77.9309 249.962 77.9309C248.478 77.9309 247.169 78.2582 246.035 78.9127C244.9 79.5673 244.006 80.4836 243.351 81.6618C242.74 82.84 242.435 84.2145 242.435 85.7855Z"/>
</mask>
<path d="M8.80665 68.6364C8.80665 65.7127 9.57029 63.1382 11.0976 60.9127C12.6248 58.6436 14.7194 56.8764 17.3812 55.6109C20.0867 54.3018 23.163 53.6473 26.6103 53.6473C30.1012 53.6473 33.1121 54.2582 35.643 55.48C38.1739 56.7018 40.1157 58.4255 41.4685 60.6509C42.8648 62.8764 43.563 65.5164 43.563 68.5709H33.0248C33.0248 66.8691 32.4357 65.5382 31.2576 64.5782C30.0794 63.5745 28.4867 63.0727 26.4794 63.0727C24.3412 63.0727 22.6176 63.5309 21.3085 64.4473C20.043 65.3636 19.4103 66.6291 19.4103 68.2436C19.4103 69.7273 19.803 70.8618 20.5885 71.6473C21.3739 72.4327 22.6176 73 24.3194 73.3491L31.5848 74.8545C35.9048 75.7273 39.1121 77.2545 41.2067 79.4364C43.3012 81.5745 44.3485 84.5636 44.3485 88.4036C44.3485 91.5018 43.5848 94.2291 42.0576 96.5855C40.5303 98.8982 38.3703 100.687 35.5776 101.953C32.8285 103.218 29.5994 103.851 25.8903 103.851C22.3121 103.851 19.1703 103.24 16.4648 102.018C13.803 100.796 11.7303 99.0727 10.2467 96.8473C8.80665 94.5782 8.08665 91.9382 8.08665 88.9273H18.6248C18.6248 90.6727 19.2576 92.0255 20.523 92.9855C21.7885 93.9455 23.5994 94.4255 25.9557 94.4255C28.3557 94.4255 30.2539 93.9891 31.6503 93.1164C33.0467 92.2 33.7448 90.9782 33.7448 89.4509C33.7448 88.0982 33.3957 87.0509 32.6976 86.3091C32.043 85.5673 30.9085 85.0436 29.2939 84.7382L21.8976 83.2327C17.5776 82.36 14.3048 80.7018 12.0794 78.2582C9.89756 75.8145 8.80665 72.6073 8.80665 68.6364ZM65.0167 103.851C61.5694 103.851 58.8203 102.913 56.7694 101.036C54.7621 99.1164 53.7585 96.5636 53.7585 93.3782C53.7585 90.3673 54.7839 87.9673 56.8348 86.1782C58.9294 84.3891 61.9403 83.3418 65.8676 83.0364L75.0312 82.3164V81.7927C75.0312 80.7018 74.813 79.8073 74.3767 79.1091C73.9403 78.3673 73.3076 77.8218 72.4785 77.4727C71.693 77.08 70.6894 76.8836 69.4676 76.8836C67.3294 76.8836 65.693 77.2764 64.5585 78.0618C63.4676 78.8473 62.9221 79.9818 62.9221 81.4655H54.5439C54.5439 78.9782 55.1767 76.8182 56.4421 74.9855C57.7076 73.1527 59.4967 71.7345 61.8094 70.7309C64.1657 69.7273 66.893 69.2255 69.9912 69.2255C73.1767 69.2255 75.8603 69.7927 78.0421 70.9273C80.2676 72.0618 81.9476 73.72 83.0821 75.9018C84.2603 78.0836 84.8494 80.7455 84.8494 83.8873V103H75.9476L75.293 98.68C74.7694 100.164 73.5257 101.407 71.5621 102.411C69.6421 103.371 67.4603 103.851 65.0167 103.851ZM68.5512 96.3891C70.4712 96.3891 72.0421 95.9309 73.2639 95.0145C74.4857 94.0545 75.0967 92.6364 75.0967 90.76V88.9927L69.9912 89.4509C67.8094 89.6255 66.2603 89.9964 65.3439 90.5636C64.4712 91.0873 64.0348 91.8727 64.0348 92.92C64.0348 94.0982 64.4057 94.9709 65.1476 95.5382C65.8894 96.1055 67.0239 96.3891 68.5512 96.3891ZM97.079 118.709V70.2727H106.57L107.094 74.2655C108.01 72.7382 109.428 71.5164 111.348 70.6C113.268 69.6836 115.384 69.2255 117.697 69.2255C120.752 69.2255 123.435 69.9018 125.748 71.2545C128.061 72.6073 129.872 74.5491 131.181 77.08C132.49 79.5673 133.144 82.5782 133.144 86.1127C133.144 89.56 132.534 92.6364 131.312 95.3418C130.134 98.0036 128.388 100.098 126.075 101.625C123.806 103.153 121.035 103.916 117.763 103.916C115.494 103.916 113.399 103.524 111.479 102.738C109.559 101.953 108.119 100.949 107.159 99.7273V118.709H97.079ZM107.224 86.6364C107.224 88.2509 107.552 89.6909 108.206 90.9564C108.904 92.1782 109.843 93.1382 111.021 93.8364C112.243 94.4909 113.639 94.8182 115.21 94.8182C116.824 94.8182 118.199 94.4691 119.334 93.7709C120.512 93.0727 121.406 92.1127 122.017 90.8909C122.672 89.6691 122.999 88.2509 122.999 86.6364C122.999 85.0218 122.672 83.6036 122.017 82.3818C121.406 81.16 120.512 80.2 119.334 79.5018C118.199 78.8036 116.824 78.4545 115.21 78.4545C113.639 78.4545 112.243 78.8036 111.021 79.5018C109.843 80.1564 108.904 81.0945 108.206 82.3164C107.552 83.5382 107.224 84.9782 107.224 86.6364ZM154.027 103H143.947V53.6473H154.027V103ZM166.589 103V70.2727H176.669V103H166.589ZM171.564 65.1673C169.949 65.1673 168.574 64.6218 167.44 63.5309C166.349 62.3964 165.804 61.0218 165.804 59.4073C165.804 57.7927 166.349 56.44 167.44 55.3491C168.574 54.2582 169.949 53.7127 171.564 53.7127C173.134 53.7127 174.465 54.2582 175.556 55.3491C176.691 56.44 177.258 57.7927 177.258 59.4073C177.258 61.0218 176.691 62.3964 175.556 63.5309C174.465 64.6218 173.134 65.1673 171.564 65.1673ZM199.311 103H189.231V70.2727H198.722L199.376 73.6764C200.38 72.28 201.755 71.1891 203.5 70.4036C205.289 69.6182 207.253 69.2255 209.391 69.2255C213.275 69.2255 216.286 70.4255 218.424 72.8255C220.606 75.1818 221.696 78.4982 221.696 82.7745V103H211.616V85.1964C211.616 83.1455 211.093 81.5091 210.046 80.2873C208.998 79.0218 207.602 78.3891 205.856 78.3891C203.849 78.3891 202.256 79 201.078 80.2218C199.9 81.4 199.311 83.0145 199.311 85.0655V103ZM232.289 86.0473C232.289 82.7309 232.944 79.8073 234.253 77.2764C235.606 74.7455 237.46 72.76 239.817 71.32C242.217 69.88 244.944 69.16 247.998 69.16C250.573 69.16 252.777 69.6836 254.609 70.7309C256.486 71.7782 257.773 73.1527 258.471 74.8545L257.489 75.5091L258.275 70.2727H267.766V100.905C267.766 104.789 267.046 108.127 265.606 110.92C264.166 113.756 262.115 115.916 259.453 117.4C256.791 118.927 253.584 119.691 249.831 119.691C244.813 119.691 240.733 118.338 237.591 115.633C234.449 112.971 232.638 109.327 232.158 104.702H242.369C242.457 106.535 243.155 107.953 244.464 108.956C245.773 110.004 247.54 110.527 249.766 110.527C252.209 110.527 254.129 109.851 255.526 108.498C256.966 107.145 257.686 105.313 257.686 103V96.0618L258.798 96.9127C258.1 98.6145 256.747 99.9891 254.74 101.036C252.733 102.084 250.42 102.607 247.802 102.607C244.747 102.607 242.042 101.909 239.686 100.513C237.373 99.1164 235.562 97.1745 234.253 94.6873C232.944 92.2 232.289 89.32 232.289 86.0473ZM242.435 85.7855C242.435 87.3564 242.762 88.7527 243.417 89.9745C244.071 91.1527 244.966 92.0909 246.1 92.7891C247.235 93.4873 248.544 93.8364 250.027 93.8364C251.555 93.8364 252.886 93.5091 254.02 92.8545C255.198 92.1564 256.093 91.2182 256.704 90.04C257.358 88.8182 257.686 87.4 257.686 85.7855C257.686 84.1709 257.358 82.7964 256.704 81.6618C256.093 80.4836 255.198 79.5673 254.02 78.9127C252.886 78.2582 251.533 77.9309 249.962 77.9309C248.478 77.9309 247.169 78.2582 246.035 78.9127C244.9 79.5673 244.006 80.4836 243.351 81.6618C242.74 82.84 242.435 84.2145 242.435 85.7855Z" fill="url(#paint0_linear_326_1608)"/>
<path d="M11.0976 60.9127L13.5711 62.6103L13.5788 62.5991L13.5863 62.5879L11.0976 60.9127ZM17.3812 55.6109L18.6693 58.3203L18.6786 58.3159L18.6879 58.3114L17.3812 55.6109ZM41.4685 60.6509L38.9049 62.2092L38.916 62.2273L38.9273 62.2454L41.4685 60.6509ZM43.563 68.5709V71.5709H46.563V68.5709H43.563ZM33.0248 68.5709H30.0248V71.5709H33.0248V68.5709ZM31.2576 64.5782L29.3122 66.8619L29.3371 66.8832L29.3625 66.9039L31.2576 64.5782ZM21.3085 64.4473L19.5881 61.9896L19.5684 62.0034L19.5489 62.0174L21.3085 64.4473ZM20.5885 71.6473L22.7098 69.526H22.7098L20.5885 71.6473ZM24.3194 73.3491L24.9281 70.4115L24.9222 70.4103L24.3194 73.3491ZM31.5848 74.8545L30.9761 77.7921L30.9835 77.7937L30.9908 77.7951L31.5848 74.8545ZM41.2066 79.4364L39.0425 81.514L39.053 81.5249L39.0636 81.5357L41.2066 79.4364ZM42.0576 96.5855L44.561 98.2386L44.568 98.2279L44.575 98.2171L42.0576 96.5855ZM35.5776 101.953L34.3394 99.2202L34.3312 99.2239L34.3231 99.2276L35.5776 101.953ZM16.4648 102.018L15.2133 104.745L15.2217 104.749L15.2301 104.752L16.4648 102.018ZM10.2467 96.8473L7.71366 98.4547L7.73176 98.4833L7.7505 98.5114L10.2467 96.8473ZM8.08665 88.9273V85.9273H5.08665V88.9273H8.08665ZM18.6248 88.9273H21.6248V85.9273H18.6248V88.9273ZM20.523 92.9855L18.7099 95.3755V95.3755L20.523 92.9855ZM31.6503 93.1164L33.2403 95.6604L33.2685 95.6427L33.2963 95.6245L31.6503 93.1164ZM32.6976 86.3091L30.448 88.294L30.4799 88.3301L30.513 88.3652L32.6976 86.3091ZM29.2939 84.7382L28.6956 87.6779L28.7159 87.682L28.7362 87.6859L29.2939 84.7382ZM21.8976 83.2327L22.4959 80.293L22.4916 80.2921L21.8976 83.2327ZM12.0794 78.2582L9.84157 80.2562L9.8514 80.2673L9.86135 80.2782L12.0794 78.2582ZM8.80665 68.6364H11.8067C11.8067 66.2659 12.4155 64.2941 13.5711 62.6103L11.0976 60.9127L8.62402 59.2152C6.72507 61.9822 5.80665 65.1596 5.80665 68.6364H8.80665ZM11.0976 60.9127L13.5863 62.5879C14.7901 60.7994 16.4542 59.3734 18.6693 58.3203L17.3812 55.6109L16.0931 52.9015C12.9846 54.3793 10.4596 56.4879 8.6088 59.2376L11.0976 60.9127ZM17.3812 55.6109L18.6879 58.3114C20.93 57.2265 23.549 56.6473 26.6103 56.6473V53.6473V50.6473C22.777 50.6473 19.2433 51.3771 16.0745 52.9104L17.3812 55.6109ZM26.6103 53.6473V56.6473C29.7563 56.6473 32.3009 57.1979 34.3388 58.1817L35.643 55.48L36.9473 52.7783C33.9233 51.3185 30.4461 50.6473 26.6103 50.6473V53.6473ZM35.643 55.48L34.3388 58.1817C36.3914 59.1726 37.8768 60.5177 38.9049 62.2092L41.4685 60.6509L44.032 59.0927C42.3547 56.3332 39.9564 54.231 36.9473 52.7783L35.643 55.48ZM41.4685 60.6509L38.9273 62.2454C39.9778 63.9196 40.563 65.987 40.563 68.5709H43.563H46.563C46.563 65.0457 45.7519 61.8331 44.0097 59.0564L41.4685 60.6509ZM43.563 68.5709V65.5709H33.0248V68.5709V71.5709H43.563V68.5709ZM33.0248 68.5709H36.0248C36.0248 66.0894 35.1195 63.8552 33.1526 62.2525L31.2576 64.5782L29.3625 66.9039C29.752 67.2212 30.0248 67.6488 30.0248 68.5709H33.0248ZM31.2576 64.5782L33.203 62.2945C31.3377 60.7055 28.9839 60.0727 26.4794 60.0727V63.0727L26.4794 66.0727C27.9894 66.0727 28.821 66.4435 29.3122 66.8619L31.2576 64.5782ZM26.4794 63.0727V60.0727C23.9304 60.0727 21.5466 60.6186 19.5881 61.9896L21.3085 64.4473L23.0289 66.905C23.6886 66.4432 24.7519 66.0727 26.4794 66.0727L26.4794 63.0727ZM21.3085 64.4473L19.5489 62.0174C17.4741 63.5199 16.4103 65.705 16.4103 68.2436H19.4103H22.4103C22.4103 67.5531 22.6119 67.2074 23.068 66.8771L21.3085 64.4473ZM19.4103 68.2436H16.4103C16.4103 70.2472 16.9502 72.2517 18.4671 73.7686L20.5885 71.6473L22.7098 69.526C22.6558 69.472 22.4103 69.2074 22.4103 68.2436H19.4103ZM20.5885 71.6473L18.4671 73.7686C19.841 75.1424 21.7385 75.8821 23.7165 76.2879L24.3194 73.3491L24.9222 70.4103C23.4966 70.1179 22.9069 69.723 22.7098 69.526L20.5885 71.6473ZM24.3194 73.3491L23.7107 76.2867L30.9761 77.7921L31.5848 74.8545L32.1935 71.9169L24.9281 70.4115L24.3194 73.3491ZM31.5848 74.8545L30.9908 77.7951C34.9727 78.5996 37.5242 79.9324 39.0425 81.514L41.2066 79.4364L43.3708 77.3588C40.7 74.5767 36.837 72.855 32.1789 71.914L31.5848 74.8545ZM41.2066 79.4364L39.0636 81.5357C40.4655 82.9669 41.3485 85.1168 41.3485 88.4036H44.3485H47.3485C47.3485 84.0105 46.1368 80.1822 43.3497 77.337L41.2066 79.4364ZM44.3485 88.4036H41.3485C41.3485 90.9848 40.7203 93.1329 39.5401 94.9538L42.0576 96.5855L44.575 98.2171C46.4494 95.3252 47.3485 92.0188 47.3485 88.4036H44.3485ZM42.0576 96.5855L39.5542 94.9323C38.371 96.7239 36.6737 98.1624 34.3394 99.2202L35.5776 101.953L36.8158 104.685C40.0669 103.212 42.6895 101.072 44.561 98.2386L42.0576 96.5855ZM35.5776 101.953L34.3231 99.2276C32.0458 100.276 29.2618 100.851 25.8903 100.851V103.851V106.851C29.9369 106.851 33.6111 106.161 36.832 104.678L35.5776 101.953ZM25.8903 103.851V100.851C22.652 100.851 19.9457 100.298 17.6996 99.2841L16.4648 102.018L15.2301 104.752C18.3949 106.182 21.9722 106.851 25.8903 106.851V103.851ZM16.4648 102.018L17.7163 99.2917C15.5101 98.279 13.889 96.9025 12.7428 95.1832L10.2467 96.8473L7.7505 98.5114C9.57153 101.243 12.0959 103.314 15.2133 104.745L16.4648 102.018ZM10.2467 96.8473L12.7796 95.2398C11.6804 93.5077 11.0867 91.4395 11.0867 88.9273H8.08665H5.08665C5.08665 92.4368 5.93287 95.6487 7.71366 98.4547L10.2467 96.8473ZM8.08665 88.9273V91.9273H18.6248V88.9273V85.9273H8.08665V88.9273ZM18.6248 88.9273H15.6248C15.6248 91.5043 16.6155 93.7867 18.7099 95.3755L20.523 92.9855L22.3362 90.5954C21.8997 90.2642 21.6248 89.8412 21.6248 88.9273H18.6248ZM20.523 92.9855L18.7099 95.3755C20.6953 96.8817 23.2472 97.4255 25.9557 97.4255V94.4255V91.4255C23.9515 91.4255 22.8816 91.0092 22.3362 90.5954L20.523 92.9855ZM25.9557 94.4255V97.4255C28.6755 97.4255 31.1965 96.9377 33.2403 95.6604L31.6503 93.1164L30.0603 90.5724C29.3114 91.0405 28.036 91.4255 25.9557 91.4255V94.4255ZM31.6503 93.1164L33.2963 95.6245C35.4439 94.2151 36.7448 92.0962 36.7448 89.4509H33.7448H30.7448C30.7448 89.8602 30.6494 90.1849 30.0043 90.6082L31.6503 93.1164ZM33.7448 89.4509H36.7448C36.7448 87.5909 36.257 85.7138 34.8822 84.253L32.6976 86.3091L30.513 88.3652C30.5345 88.388 30.7448 88.6055 30.7448 89.4509H33.7448ZM32.6976 86.3091L34.9471 84.3242C33.6432 82.8465 31.725 82.1449 29.8516 81.7905L29.2939 84.7382L28.7362 87.6859C29.373 87.8064 29.8116 87.9514 30.0986 88.0839C30.3835 88.2154 30.459 88.3064 30.448 88.294L32.6976 86.3091ZM29.2939 84.7382L29.8923 81.7985L22.4959 80.293L21.8976 83.2327L21.2992 86.1725L28.6956 87.6779L29.2939 84.7382ZM21.8976 83.2327L22.4916 80.2921C18.5905 79.504 15.9702 78.075 14.2974 76.2382L12.0794 78.2582L9.86135 80.2782C12.6394 83.3286 16.5646 85.216 21.3035 86.1733L21.8976 83.2327ZM12.0794 78.2582L14.3172 76.2601C12.7255 74.4774 11.8067 72.0343 11.8067 68.6364H8.80665H5.80665C5.80665 73.1803 7.06963 77.1517 9.84157 80.2562L12.0794 78.2582ZM56.7694 101.036L54.6957 103.204L54.7198 103.227L54.7443 103.25L56.7694 101.036ZM56.8348 86.1782L54.8864 83.8971L54.8745 83.9072L54.8627 83.9175L56.8348 86.1782ZM65.8676 83.0364L66.1002 86.0273L66.1026 86.0271L65.8676 83.0364ZM75.0312 82.3164L75.2662 85.3071L78.0312 85.0899V82.3164H75.0312ZM74.3766 79.1091L71.7908 80.6301L71.8113 80.6649L71.8327 80.6991L74.3766 79.1091ZM72.4785 77.4727L71.1368 80.156L71.2242 80.1997L71.3143 80.2376L72.4785 77.4727ZM64.5585 78.0618L62.8508 75.5952L62.828 75.611L62.8056 75.6272L64.5585 78.0618ZM62.9221 81.4655V84.4655H65.9221V81.4655H62.9221ZM54.5439 81.4655H51.5439V84.4655H54.5439V81.4655ZM56.4421 74.9855L53.9734 73.2809V73.2809L56.4421 74.9855ZM61.8094 70.7309L60.6338 67.9708L60.6244 67.9748L60.6151 67.9789L61.8094 70.7309ZM78.0421 70.9273L76.6581 73.5889L76.6688 73.5945L76.6795 73.6L78.0421 70.9273ZM83.0821 75.9018L80.4205 77.2859L80.4313 77.3067L80.4424 77.3273L83.0821 75.9018ZM84.8494 103V106H87.8494V103H84.8494ZM75.9476 103L72.9814 103.449L73.3679 106H75.9476V103ZM75.293 98.68L78.2592 98.2306L72.464 97.6815L75.293 98.68ZM71.5621 102.411L72.9037 105.094L72.9156 105.088L72.9274 105.082L71.5621 102.411ZM73.2639 95.0145L75.0639 97.4145L75.0909 97.3943L75.1174 97.3735L73.2639 95.0145ZM75.0966 88.9927H78.0966V85.7114L74.8285 86.0047L75.0966 88.9927ZM69.9912 89.4509L70.2304 92.4414L70.2449 92.4402L70.2594 92.4389L69.9912 89.4509ZM65.3439 90.5636L66.8874 93.1361L66.9053 93.1254L66.923 93.1144L65.3439 90.5636ZM65.1476 95.5382L66.9699 93.1551V93.1551L65.1476 95.5382ZM65.0166 103.851V100.851C62.1309 100.851 60.1676 100.079 58.7944 98.8229L56.7694 101.036L54.7443 103.25C57.4729 105.746 61.0079 106.851 65.0166 106.851V103.851ZM56.7694 101.036L58.843 98.8684C57.5161 97.5992 56.7585 95.8763 56.7585 93.3782H53.7585H50.7585C50.7585 97.251 52.0081 100.634 54.6957 103.204L56.7694 101.036ZM53.7585 93.3782H56.7585C56.7585 91.1306 57.4832 89.5937 58.8069 88.4389L56.8348 86.1782L54.8627 83.9175C52.0847 86.3409 50.7585 89.604 50.7585 93.3782H53.7585ZM56.8348 86.1782L58.7833 88.4593C60.2277 87.2255 62.5431 86.304 66.1002 86.0273L65.8676 83.0364L65.6349 80.0454C61.3375 80.3796 57.631 81.5527 54.8864 83.8971L56.8348 86.1782ZM65.8676 83.0364L66.1026 86.0271L75.2662 85.3071L75.0312 82.3164L74.7962 79.3256L65.6326 80.0456L65.8676 83.0364ZM75.0312 82.3164H78.0312V81.7927H75.0312H72.0312V82.3164H75.0312ZM75.0312 81.7927H78.0312C78.0312 80.3179 77.7372 78.8255 76.9206 77.5191L74.3766 79.1091L71.8327 80.6991C71.8889 80.789 72.0312 81.0857 72.0312 81.7927H75.0312ZM74.3766 79.1091L76.9625 77.588C76.183 76.263 75.0384 75.2955 73.6426 74.7078L72.4785 77.4727L71.3143 80.2376C71.5768 80.3481 71.6976 80.4716 71.7908 80.6301L74.3766 79.1091ZM72.4785 77.4727L73.8201 74.7894C72.4878 74.1233 70.9835 73.8836 69.4676 73.8836V76.8836V79.8836C70.3953 79.8836 70.8982 80.0367 71.1368 80.156L72.4785 77.4727ZM69.4676 76.8836V73.8836C67.031 73.8836 64.6936 74.3195 62.8508 75.5952L64.5585 78.0618L66.2661 80.5284C66.6924 80.2333 67.6278 79.8836 69.4676 79.8836V76.8836ZM64.5585 78.0618L62.8056 75.6272C60.8418 77.0411 59.9221 79.1332 59.9221 81.4655H62.9221H65.9221C65.9221 80.8305 66.0933 80.6535 66.3114 80.4964L64.5585 78.0618ZM62.9221 81.4655V78.4655H54.5439V81.4655V84.4655H62.9221V81.4655ZM54.5439 81.4655H57.5439C57.5439 79.5131 58.0311 77.964 58.9108 76.69L56.4421 74.9855L53.9734 73.2809C52.3222 75.6724 51.5439 78.4433 51.5439 81.4655H54.5439ZM56.4421 74.9855L58.9108 76.69C59.8171 75.3774 61.1356 74.2936 63.0037 73.4829L61.8094 70.7309L60.6151 67.9789C57.8577 69.1755 55.598 70.9281 53.9734 73.2809L56.4421 74.9855ZM61.8094 70.7309L62.985 73.491C64.9004 72.6752 67.2142 72.2254 69.9912 72.2254V69.2254V66.2254C66.5718 66.2254 63.4311 66.7794 60.6338 67.9708L61.8094 70.7309ZM69.9912 69.2254V72.2254C72.8326 72.2254 75.0112 72.7326 76.6581 73.5889L78.0421 70.9273L79.4262 68.2656C76.7094 66.8529 73.5207 66.2254 69.9912 66.2254V69.2254ZM78.0421 70.9273L76.6795 73.6C78.3577 74.4556 79.579 75.6677 80.4205 77.2859L83.0821 75.9018L85.7438 74.5178C84.3161 71.7723 82.1774 69.6681 79.4047 68.2546L78.0421 70.9273ZM83.0821 75.9018L80.4424 77.3273C81.3292 78.9695 81.8494 81.1131 81.8494 83.8873H84.8494H87.8494C87.8494 80.3778 87.1914 77.1978 85.7218 74.4764L83.0821 75.9018ZM84.8494 83.8873H81.8494V103H84.8494H87.8494V83.8873H84.8494ZM84.8494 103V100H75.9476V103V106H84.8494V103ZM75.9476 103L78.9137 102.551L78.2592 98.2306L75.293 98.68L72.3269 99.1294L72.9814 103.449L75.9476 103ZM75.293 98.68L72.464 97.6815C72.2835 98.193 71.7529 98.9443 70.1968 99.7396L71.5621 102.411L72.9274 105.082C75.2986 103.87 77.2552 102.134 78.122 99.6785L75.293 98.68ZM71.5621 102.411L70.2205 99.7276C68.7714 100.452 67.0594 100.851 65.0166 100.851V103.851V106.851C67.8612 106.851 70.5129 106.29 72.9037 105.094L71.5621 102.411ZM68.5512 96.3891V99.3891C70.9512 99.3891 73.2021 98.8109 75.0639 97.4145L73.2639 95.0145L71.4639 92.6145C70.8821 93.0509 69.9912 93.3891 68.5512 93.3891V96.3891ZM73.2639 95.0145L75.1174 97.3735C77.2152 95.7252 78.0966 93.3444 78.0966 90.76H75.0966H72.0966C72.0966 91.9283 71.7563 92.3839 71.4105 92.6556L73.2639 95.0145ZM75.0966 90.76H78.0966V88.9927H75.0966H72.0966V90.76H75.0966ZM75.0966 88.9927L74.8285 86.0047L69.723 86.4629L69.9912 89.4509L70.2594 92.4389L75.3648 91.9807L75.0966 88.9927ZM69.9912 89.4509L69.752 86.4605C67.4883 86.6416 65.3247 87.0472 63.7649 88.0128L65.3439 90.5636L66.923 93.1144C67.1959 92.9455 68.1305 92.6094 70.2304 92.4414L69.9912 89.4509ZM65.3439 90.5636L63.8004 87.9912C61.9924 89.076 61.0348 90.8564 61.0348 92.92H64.0348H67.0348C67.0348 92.8665 67.0404 92.8562 67.0351 92.8785C67.0293 92.9028 67.0147 92.9481 66.9846 93.0024C66.9542 93.057 66.92 93.0993 66.8925 93.1268C66.8665 93.1528 66.8589 93.1532 66.8874 93.1361L65.3439 90.5636ZM64.0348 92.92H61.0348C61.0348 94.7632 61.6505 96.6406 63.3252 97.9213L65.1476 95.5382L66.9699 93.1551C66.9859 93.1673 67.0103 93.1897 67.0346 93.2211C67.0587 93.2524 67.0707 93.277 67.074 93.2848C67.0795 93.2977 67.0348 93.2006 67.0348 92.92H64.0348ZM65.1476 95.5382L63.3252 97.9213C64.8303 99.0722 66.7501 99.3891 68.5512 99.3891V96.3891V93.3891C67.9627 93.3891 67.5521 93.3334 67.2824 93.2659C67.0153 93.1992 66.9448 93.1359 66.9699 93.1551L65.1476 95.5382ZM97.079 118.709H94.079V121.709H97.079V118.709ZM97.079 70.2727V67.2727H94.079V70.2727H97.079ZM106.57 70.2727L109.544 69.8826L109.202 67.2727H106.57V70.2727ZM107.094 74.2655L104.119 74.6556L105.238 83.1888L109.666 75.8089L107.094 74.2655ZM111.348 70.6L112.64 73.3074V73.3074L111.348 70.6ZM125.748 71.2545L124.233 73.8441V73.8441L125.748 71.2545ZM131.181 77.08L128.516 78.4583L128.521 78.4678L128.526 78.4772L131.181 77.08ZM131.312 95.3418L128.578 94.1071L128.573 94.1173L128.568 94.1276L131.312 95.3418ZM126.075 101.625L124.422 99.1221L124.411 99.1293L124.4 99.1367L126.075 101.625ZM111.479 102.738L112.615 99.9615V99.9615L111.479 102.738ZM107.159 99.7273L109.518 97.8738L104.159 91.0533V99.7273H107.159ZM107.159 118.709V121.709H110.159V118.709H107.159ZM108.206 90.9564L105.542 92.3346L105.57 92.3903L105.602 92.4448L108.206 90.9564ZM111.021 93.8364L109.491 96.4172L109.547 96.4502L109.604 96.4808L111.021 93.8364ZM119.334 93.7709L117.804 91.19L117.783 91.2028L117.761 91.2159L119.334 93.7709ZM122.017 90.8909L119.373 89.4742L119.353 89.5115L119.334 89.5493L122.017 90.8909ZM122.017 82.3818L119.334 83.7235L119.353 83.7612L119.373 83.7985L122.017 82.3818ZM119.334 79.5018L117.761 82.0568L117.783 82.0699L117.804 82.0827L119.334 79.5018ZM111.021 79.5018L112.478 82.1243L112.494 82.1155L112.509 82.1065L111.021 79.5018ZM108.206 82.3164L105.602 80.8279L105.581 80.8635L105.562 80.8997L108.206 82.3164ZM97.079 118.709H100.079V70.2727H97.079H94.079V118.709H97.079ZM97.079 70.2727V73.2727H106.57V70.2727V67.2727H97.079V70.2727ZM106.57 70.2727L103.595 70.6628L104.119 74.6556L107.094 74.2655L110.068 73.8754L109.544 69.8826L106.57 70.2727ZM107.094 74.2655L109.666 75.8089C110.224 74.8783 111.147 74.0201 112.64 73.3074L111.348 70.6L110.056 67.8926C107.709 69.0126 105.795 70.598 104.521 72.722L107.094 74.2655ZM111.348 70.6L112.64 73.3074C114.123 72.6 115.792 72.2254 117.697 72.2254V69.2254V66.2254C114.977 66.2254 112.414 66.7673 110.056 67.8926L111.348 70.6ZM117.697 69.2254V72.2254C120.295 72.2254 122.442 72.796 124.233 73.8441L125.748 71.2545L127.263 68.665C124.429 67.0076 121.208 66.2254 117.697 66.2254V69.2254ZM125.748 71.2545L124.233 73.8441C126.024 74.8916 127.451 76.3983 128.516 78.4583L131.181 77.08L133.846 75.7017C132.293 72.6998 130.097 70.3229 127.263 68.665L125.748 71.2545ZM131.181 77.08L128.526 78.4772C129.557 80.4368 130.144 82.9423 130.144 86.1127H133.144H136.144C136.144 82.214 135.422 78.6977 133.836 75.6828L131.181 77.08ZM133.144 86.1127H130.144C130.144 89.2024 129.598 91.8473 128.578 94.1071L131.312 95.3418L134.046 96.5766C135.469 93.4254 136.144 89.9176 136.144 86.1127H133.144ZM131.312 95.3418L128.568 94.1276C127.61 96.2919 126.231 97.9276 124.422 99.1221L126.075 101.625L127.729 104.129C130.545 102.269 132.657 99.7153 134.055 96.5561L131.312 95.3418ZM126.075 101.625L124.4 99.1367C122.717 100.27 120.558 100.916 117.763 100.916V103.916V106.916C121.513 106.916 124.896 106.036 127.751 104.114L126.075 101.625ZM117.763 103.916V100.916C115.846 100.916 114.142 100.586 112.615 99.9615L111.479 102.738L110.343 105.515C112.656 106.461 115.141 106.916 117.763 106.916V103.916ZM111.479 102.738L112.615 99.9615C111.02 99.3092 110.067 98.5728 109.518 97.8738L107.159 99.7273L104.8 101.581C106.171 103.325 108.098 104.596 110.343 105.515L111.479 102.738ZM107.159 99.7273H104.159V118.709H107.159H110.159V99.7273H107.159ZM107.159 118.709V115.709H97.079V118.709V121.709H107.159V118.709ZM107.224 86.6364H104.224C104.224 88.666 104.639 90.5893 105.542 92.3346L108.206 90.9564L110.871 89.5781C110.465 88.7925 110.224 87.8358 110.224 86.6364H107.224ZM108.206 90.9564L105.602 92.4448C106.55 94.1047 107.854 95.4466 109.491 96.4172L111.021 93.8364L112.55 91.2555C111.832 90.8297 111.259 90.2516 110.811 89.4679L108.206 90.9564ZM111.021 93.8364L109.604 96.4808C111.317 97.3984 113.211 97.8182 115.21 97.8182V94.8182V91.8182C114.067 91.8182 113.168 91.5835 112.438 91.1919L111.021 93.8364ZM115.21 94.8182V97.8182C117.262 97.8182 119.207 97.3713 120.906 96.3259L119.334 93.7709L117.761 91.2159C117.191 91.5669 116.387 91.8182 115.21 91.8182V94.8182ZM119.334 93.7709L120.863 96.3518C122.535 95.3607 123.831 93.9711 124.701 92.2326L122.017 90.8909L119.334 89.5493C118.981 90.2544 118.488 90.7848 117.804 91.19L119.334 93.7709ZM122.017 90.8909L124.662 92.3076C125.585 90.5832 125.999 88.6634 125.999 86.6364H122.999H119.999C119.999 87.8384 119.758 88.755 119.373 89.4742L122.017 90.8909ZM122.999 86.6364H125.999C125.999 84.6093 125.585 82.6895 124.662 80.9651L122.017 82.3818L119.373 83.7985C119.758 84.5178 119.999 85.4343 119.999 86.6364H122.999ZM122.017 82.3818L124.701 81.0402C123.831 79.3017 122.535 77.912 120.863 76.9209L119.334 79.5018L117.804 82.0827C118.488 82.488 118.981 83.0183 119.334 83.7235L122.017 82.3818ZM119.334 79.5018L120.906 76.9468C119.207 75.9014 117.262 75.4545 115.21 75.4545V78.4545V81.4545C116.387 81.4545 117.191 81.7058 117.761 82.0568L119.334 79.5018ZM115.21 78.4545V75.4545C113.179 75.4545 111.259 75.9107 109.532 76.8971L111.021 79.5018L112.509 82.1065C113.227 81.6965 114.099 81.4545 115.21 81.4545V78.4545ZM111.021 79.5018L109.564 76.8793C107.885 77.812 106.559 79.1523 105.602 80.8279L108.206 82.3164L110.811 83.8048C111.25 83.0368 111.8 82.5007 112.478 82.1243L111.021 79.5018ZM108.206 82.3164L105.562 80.8997C104.632 82.6351 104.224 84.5805 104.224 86.6364H107.224H110.224C110.224 85.3759 110.471 84.4412 110.851 83.733L108.206 82.3164ZM154.027 103V106H157.027V103H154.027ZM143.947 103H140.947V106H143.947V103ZM143.947 53.6473V50.6473H140.947V53.6473H143.947ZM154.027 53.6473H157.027V50.6473H154.027V53.6473ZM154.027 103V100H143.947V103V106H154.027V103ZM143.947 103H146.947V53.6473H143.947H140.947V103H143.947ZM143.947 53.6473V56.6473H154.027V53.6473V50.6473H143.947V53.6473ZM154.027 53.6473H151.027V103H154.027H157.027V53.6473H154.027ZM166.589 103H163.589V106H166.589V103ZM166.589 70.2727V67.2727H163.589V70.2727H166.589ZM176.669 70.2727H179.669V67.2727H176.669V70.2727ZM176.669 103V106H179.669V103H176.669ZM167.44 63.5309L165.277 65.6102L165.318 65.6526L165.361 65.6934L167.44 63.5309ZM167.44 55.3491L165.361 53.1866L165.339 53.207L165.319 53.2278L167.44 55.3491ZM175.556 55.3491L173.435 57.4704L173.456 57.4912L173.477 57.5116L175.556 55.3491ZM175.556 63.5309L173.435 61.4096V61.4096L175.556 63.5309ZM166.589 103H169.589V70.2727H166.589H163.589V103H166.589ZM166.589 70.2727V73.2727H176.669V70.2727V67.2727H166.589V70.2727ZM176.669 70.2727H173.669V103H176.669H179.669V70.2727H176.669ZM176.669 103V100H166.589V103V106H176.669V103ZM171.564 65.1673V62.1673C170.702 62.1673 170.079 61.9067 169.519 61.3684L167.44 63.5309L165.361 65.6934C167.07 67.3369 169.196 68.1673 171.564 68.1673V65.1673ZM167.44 63.5309L169.602 61.4516C169.064 60.8917 168.804 60.2688 168.804 59.4073H165.804H162.804C162.804 61.7748 163.634 63.901 165.277 65.6102L167.44 63.5309ZM165.804 59.4073H168.804C168.804 58.5472 169.061 57.9702 169.561 57.4704L167.44 55.3491L165.319 53.2278C163.637 54.9098 162.804 57.0383 162.804 59.4073H165.804ZM167.44 55.3491L169.519 57.5116C170.079 56.9733 170.702 56.7127 171.564 56.7127V53.7127V50.7127C169.196 50.7127 167.07 51.5431 165.361 53.1866L167.44 55.3491ZM171.564 53.7127V56.7127C172.355 56.7127 172.918 56.9535 173.435 57.4704L175.556 55.3491L177.678 53.2278C176.013 51.5628 173.914 50.7127 171.564 50.7127V53.7127ZM175.556 55.3491L173.477 57.5116C174.006 58.0207 174.258 58.5851 174.258 59.4073H177.258H180.258C180.258 57.0004 179.375 54.8593 177.636 53.1866L175.556 55.3491ZM177.258 59.4073H174.258C174.258 60.2318 174.003 60.8416 173.435 61.4096L175.556 63.5309L177.678 65.6522C179.379 63.9511 180.258 61.8119 180.258 59.4073H177.258ZM175.556 63.5309L173.435 61.4096C172.918 61.9265 172.355 62.1673 171.564 62.1673V65.1673V68.1673C173.914 68.1673 176.013 67.3172 177.678 65.6522L175.556 63.5309ZM199.311 103V106H202.311V103H199.311ZM189.231 103H186.231V106H189.231V103ZM189.231 70.2727V67.2727H186.231V70.2727H189.231ZM198.722 70.2727L201.668 69.7062L201.2 67.2727H198.722V70.2727ZM199.376 73.6764L196.43 74.2429L197.746 81.0848L201.813 75.4273L199.376 73.6764ZM203.5 70.4036L202.294 67.6567L202.282 67.6622L202.269 67.6679L203.5 70.4036ZM218.424 72.8255L216.184 74.8211L216.203 74.8426L216.222 74.8637L218.424 72.8255ZM221.696 103V106H224.696V103H221.696ZM211.616 103H208.616V106H211.616V103ZM210.046 80.2873L207.734 82.2L207.751 82.22L207.768 82.2396L210.046 80.2873ZM201.078 80.2218L203.2 82.3431L203.219 82.3239L203.238 82.3042L201.078 80.2218ZM199.311 103V100H189.231V103V106H199.311V103ZM189.231 103H192.231V70.2727H189.231H186.231V103H189.231ZM189.231 70.2727V73.2727H198.722V70.2727V67.2727H189.231V70.2727ZM198.722 70.2727L195.776 70.8393L196.43 74.2429L199.376 73.6764L202.322 73.1098L201.668 69.7062L198.722 70.2727ZM199.376 73.6764L201.813 75.4273C202.474 74.5065 203.411 73.7333 204.731 73.1394L203.5 70.4036L202.269 67.6679C200.098 68.6448 198.286 70.0535 196.94 71.9255L199.376 73.6764ZM203.5 70.4036L204.706 73.1506C206.08 72.5472 207.629 72.2254 209.391 72.2254V69.2254V66.2254C206.877 66.2254 204.498 66.6892 202.294 67.6567L203.5 70.4036ZM209.391 69.2254V72.2254C212.613 72.2254 214.732 73.1918 216.184 74.8211L218.424 72.8255L220.664 70.8298C217.839 67.6591 213.936 66.2254 209.391 66.2254V69.2254ZM218.424 72.8255L216.222 74.8637C217.74 76.5025 218.696 78.9979 218.696 82.7745H221.696H224.696C224.696 77.9985 223.471 73.8611 220.625 70.7872L218.424 72.8255ZM221.696 82.7745H218.696V103H221.696H224.696V82.7745H221.696ZM221.696 103V100H211.616V103V106H221.696V103ZM211.616 103H214.616V85.1964H211.616H208.616V103H211.616ZM211.616 85.1964H214.616C214.616 82.631 213.953 80.2361 212.323 78.3349L210.046 80.2873L207.768 82.2396C208.233 82.782 208.616 83.6599 208.616 85.1964H211.616ZM210.046 80.2873L212.357 78.3746C210.7 76.3726 208.432 75.3891 205.856 75.3891V78.3891V81.3891C206.772 81.3891 207.297 81.6711 207.734 82.2L210.046 80.2873ZM205.856 78.3891V75.3891C203.195 75.3891 200.765 76.2247 198.919 78.1394L201.078 80.2218L203.238 82.3042C203.748 81.7753 204.503 81.3891 205.856 81.3891V78.3891ZM201.078 80.2218L198.957 78.1005C197.092 79.9656 196.311 82.4139 196.311 85.0655H199.311H202.311C202.311 83.6152 202.708 82.8344 203.2 82.3431L201.078 80.2218ZM199.311 85.0655H196.311V103H199.311H202.311V85.0655H199.311ZM234.253 77.2764L231.607 75.8622L231.598 75.8801L231.588 75.8981L234.253 77.2764ZM239.817 71.32L238.273 68.7475L238.263 68.7538L238.252 68.7602L239.817 71.32ZM254.609 70.7309L253.121 73.3356L253.134 73.3431L253.147 73.3505L254.609 70.7309ZM258.471 74.8545L260.135 77.3507L262.179 75.9883L261.247 73.7159L258.471 74.8545ZM257.489 75.5091L254.522 75.0641L253.518 81.7623L259.153 78.0052L257.489 75.5091ZM258.275 70.2727V67.2727L255.691 67.2727L255.308 69.8277L258.275 70.2727ZM267.766 70.2727H270.766V67.2727H267.766V70.2727ZM265.606 110.92L262.939 109.545L262.935 109.554L262.931 109.562L265.606 110.92ZM259.453 117.4L257.992 114.78L257.976 114.789L257.96 114.798L259.453 117.4ZM237.591 115.633L239.549 113.359L239.54 113.352L239.53 113.344L237.591 115.633ZM232.158 104.702V101.702H228.831L229.174 105.011L232.158 104.702ZM242.369 104.702L245.366 104.559L245.23 101.702H242.369V104.702ZM244.464 108.956L246.338 106.614L246.314 106.594L246.289 106.576L244.464 108.956ZM255.526 108.498L253.472 106.312L253.455 106.327L253.438 106.343L255.526 108.498ZM257.686 96.0618L259.508 93.6787L254.686 89.9911V96.0618L257.686 96.0618ZM258.798 96.9127L261.574 98.0514L262.446 95.9255L260.621 94.5297L258.798 96.9127ZM254.74 101.036L253.352 98.3766L254.74 101.036ZM239.686 100.513L238.135 103.081L238.146 103.087L238.156 103.094L239.686 100.513ZM234.253 94.6873L231.598 96.0845V96.0845L234.253 94.6873ZM243.417 89.9745L240.772 91.3912L240.783 91.4114L240.794 91.4315L243.417 89.9745ZM246.1 92.7891L247.672 90.2341V90.2341L246.1 92.7891ZM254.02 92.8545L255.519 95.4531L255.535 95.4444L255.55 95.4354L254.02 92.8545ZM256.704 90.04L254.059 88.6233L254.05 88.6411L254.041 88.659L256.704 90.04ZM256.704 81.6618L254.041 83.0428L254.072 83.1026L254.105 83.161L256.704 81.6618ZM254.02 78.9127L252.521 81.5113L252.542 81.5234L252.563 81.5352L254.02 78.9127ZM246.035 78.9127L244.536 76.3142H244.536L246.035 78.9127ZM243.351 81.6618L240.729 80.2049L240.708 80.2426L240.688 80.2809L243.351 81.6618ZM232.289 86.0473H235.289C235.289 83.1318 235.862 80.6947 236.918 78.6546L234.253 77.2764L231.588 75.8981C230.025 78.9198 229.289 82.33 229.289 86.0473H232.289ZM234.253 77.2764L236.899 78.6905C238.01 76.6117 239.499 75.0299 241.381 73.8798L239.817 71.32L238.252 68.7602C235.421 70.4901 233.201 72.8792 231.607 75.8622L234.253 77.2764ZM239.817 71.32L241.36 73.8925C243.252 72.7575 245.436 72.16 247.998 72.16V69.16V66.16C244.451 66.16 241.181 67.0025 238.273 68.7475L239.817 71.32ZM247.998 69.16V72.16C250.165 72.16 251.831 72.5987 253.121 73.3356L254.609 70.7309L256.098 68.1262C253.722 66.7686 250.981 66.16 247.998 66.16V69.16ZM254.609 70.7309L253.147 73.3505C254.535 74.1251 255.297 75.0215 255.696 75.9932L258.471 74.8545L261.247 73.7159C260.249 71.2839 258.436 69.4313 256.071 68.1113L254.609 70.7309ZM258.471 74.8545L256.807 72.3584L255.825 73.0129L257.489 75.5091L259.153 78.0052L260.135 77.3507L258.471 74.8545ZM257.489 75.5091L260.456 75.9541L261.242 70.7178L258.275 70.2727L255.308 69.8277L254.522 75.0641L257.489 75.5091ZM258.275 70.2727V73.2727H267.766V70.2727V67.2727H258.275V70.2727ZM267.766 70.2727H264.766V100.905H267.766H270.766V70.2727H267.766ZM267.766 100.905H264.766C264.766 104.422 264.114 107.266 262.939 109.545L265.606 110.92L268.272 112.295C269.977 108.988 270.766 105.156 270.766 100.905H267.766ZM265.606 110.92L262.931 109.562C261.748 111.891 260.109 113.6 257.992 114.78L259.453 117.4L260.913 120.02C264.12 118.233 266.583 115.622 268.281 112.278L265.606 110.92ZM259.453 117.4L257.96 114.798C255.844 116.012 253.176 116.691 249.831 116.691V119.691V122.691C253.992 122.691 257.739 121.842 260.946 120.002L259.453 117.4ZM249.831 119.691V116.691C245.374 116.691 242.037 115.502 239.549 113.359L237.591 115.633L235.634 117.906C239.428 121.174 244.252 122.691 249.831 122.691V119.691ZM237.591 115.633L239.53 113.344C237.057 111.248 235.554 108.356 235.142 104.392L232.158 104.702L229.174 105.011C229.723 110.299 231.842 114.694 235.652 117.922L237.591 115.633ZM232.158 104.702V107.702H242.369V104.702V101.702H232.158V104.702ZM242.369 104.702L239.373 104.845C239.497 107.448 240.545 109.732 242.639 111.337L244.464 108.956L246.289 106.576C245.765 106.174 245.416 105.621 245.366 104.559L242.369 104.702ZM244.464 108.956L242.59 111.299C244.582 112.893 247.083 113.527 249.766 113.527V110.527V107.527C247.998 107.527 246.963 107.114 246.338 106.614L244.464 108.956ZM249.766 110.527V113.527C252.778 113.527 255.522 112.678 257.613 110.653L255.526 108.498L253.438 106.343C252.736 107.024 251.64 107.527 249.766 107.527V110.527ZM255.526 108.498L257.58 110.685C259.727 108.668 260.686 105.987 260.686 103H257.686L254.686 103C254.686 104.638 254.204 105.623 253.472 106.312L255.526 108.498ZM257.686 103H260.686V96.0618H257.686L254.686 96.0618V103L257.686 103ZM257.686 96.0618L255.863 98.4449L256.976 99.2958L258.798 96.9127L260.621 94.5297L259.508 93.6787L257.686 96.0618ZM258.798 96.9127L256.023 95.7741C255.651 96.6799 254.882 97.5785 253.352 98.3766L254.74 101.036L256.128 103.696C258.613 102.4 260.549 100.549 261.574 98.0514L258.798 96.9127ZM254.74 101.036L253.352 98.3766C251.836 99.1677 250.013 99.6073 247.802 99.6073V102.607V105.607C250.828 105.607 253.63 105 256.128 103.696L254.74 101.036ZM247.802 102.607V99.6073C245.222 99.6073 243.057 99.0232 241.215 97.9319L239.686 100.513L238.156 103.094C241.027 104.795 244.273 105.607 247.802 105.607V102.607ZM239.686 100.513L241.236 97.9445C239.411 96.8424 237.973 95.3142 236.908 93.29L234.253 94.6873L231.598 96.0845C233.151 99.0349 235.335 101.39 238.135 103.081L239.686 100.513ZM234.253 94.6873L236.908 93.29C235.86 91.2994 235.289 88.9134 235.289 86.0473H232.289H229.289C229.289 89.7266 230.028 93.1006 231.598 96.0845L234.253 94.6873ZM242.435 85.7855H239.435C239.435 87.784 239.855 89.6784 240.772 91.3912L243.417 89.9745L246.061 88.5579C245.669 87.827 245.435 86.9288 245.435 85.7855H242.435ZM243.417 89.9745L240.794 91.4315C241.696 93.0542 242.949 94.3727 244.528 95.3441L246.1 92.7891L247.672 90.2341C246.982 89.8091 246.447 89.2513 246.039 88.5176L243.417 89.9745ZM246.1 92.7891L244.528 95.3441C246.188 96.3655 248.054 96.8364 250.027 96.8364V93.8364V90.8364C249.034 90.8364 248.282 90.6091 247.672 90.2341L246.1 92.7891ZM250.027 93.8364V96.8364C251.993 96.8364 253.858 96.4115 255.519 95.4531L254.02 92.8545L252.521 90.256C251.913 90.6067 251.117 90.8364 250.027 90.8364V93.8364ZM254.02 92.8545L255.55 95.4354C257.194 94.4608 258.489 93.1138 259.367 91.421L256.704 90.04L254.041 88.659C253.696 89.3226 253.202 89.8519 252.491 90.2737L254.02 92.8545ZM256.704 90.04L259.348 91.4567C260.272 89.7323 260.686 87.8125 260.686 85.7855H257.686L254.686 85.7855C254.686 86.9875 254.445 87.904 254.059 88.6233L256.704 90.04ZM257.686 85.7855H260.686C260.686 83.7661 260.275 81.8479 259.302 80.1627L256.704 81.6618L254.105 83.161C254.442 83.7448 254.686 84.5757 254.686 85.7855L257.686 85.7855ZM256.704 81.6618L259.367 80.2809C258.48 78.5707 257.162 77.2264 255.477 76.2903L254.02 78.9127L252.563 81.5352C253.235 81.9082 253.705 82.3966 254.041 83.0428L256.704 81.6618ZM254.02 78.9127L255.519 76.3142C253.846 75.3487 251.954 74.9309 249.962 74.9309V77.9309V80.9309C251.112 80.9309 251.925 81.1677 252.521 81.5113L254.02 78.9127ZM249.962 77.9309V74.9309C248.023 74.9309 246.184 75.3632 244.536 76.3142L246.035 78.9127L247.534 81.5113C248.155 81.1531 248.934 80.9309 249.962 80.9309V77.9309ZM246.035 78.9127L244.536 76.3142C242.916 77.2486 241.639 78.5659 240.729 80.2049L243.351 81.6618L245.974 83.1187C246.372 82.4014 246.884 81.886 247.534 81.5113L246.035 78.9127ZM243.351 81.6618L240.688 80.2809C239.818 81.9575 239.435 83.8219 239.435 85.7855H242.435H245.435C245.435 84.6072 245.662 83.7225 246.014 83.0428L243.351 81.6618Z" fill="#604828" mask="url(#path-1-outside-1_326_1608)"/>
<defs>
<linearGradient id="paint0_linear_326_1608" x1="139" y1="0" x2="139" y2="155" gradientUnits="userSpaceOnUse">
<stop offset="0.474633" stop-color="#FDE986"/>
<stop offset="0.517772" stop-color="white" stop-opacity="0.3"/>
<stop offset="0.564766" stop-color="#FEDBB7"/>
<stop offset="0.65696" stop-color="#E77D11"/>
</linearGradient>
</defs>
</svg>
