<svg width="247" height="156" viewBox="0 0 247 156" fill="none" xmlns="http://www.w3.org/2000/svg">
<mask id="path-1-outside-1_326_1592" maskUnits="userSpaceOnUse" x="3" y="50" width="241" height="72" fill="black">
<rect fill="white" x="3" y="50" width="241" height="72"/>
<path d="M7.70082 68.6364C7.70082 65.7127 8.46446 63.1382 9.99173 60.9127C11.519 58.6436 13.6136 56.8764 16.2754 55.6109C18.9808 54.3018 22.0572 53.6473 25.5045 53.6473C28.9954 53.6473 32.0063 54.2582 34.5372 55.48C37.0681 56.7018 39.0099 58.4255 40.3626 60.6509C41.759 62.8764 42.4572 65.5164 42.4572 68.5709H31.919C31.919 66.8691 31.3299 65.5382 30.1517 64.5782C28.9736 63.5745 27.3808 63.0727 25.3736 63.0727C23.2354 63.0727 21.5117 63.5309 20.2026 64.4473C18.9372 65.3636 18.3045 66.6291 18.3045 68.2436C18.3045 69.7273 18.6972 70.8618 19.4826 71.6473C20.2681 72.4327 21.5117 73 23.2136 73.3491L30.479 74.8545C34.799 75.7273 38.0063 77.2545 40.1008 79.4364C42.1954 81.5745 43.2426 84.5636 43.2426 88.4036C43.2426 91.5018 42.479 94.2291 40.9517 96.5855C39.4245 98.8982 37.2645 100.687 34.4717 101.953C31.7226 103.218 28.4936 103.851 24.7845 103.851C21.2063 103.851 18.0645 103.24 15.359 102.018C12.6972 100.796 10.6245 99.0727 9.14082 96.8473C7.70082 94.5782 6.98082 91.9382 6.98082 88.9273H17.519C17.519 90.6727 18.1517 92.0255 19.4172 92.9855C20.6826 93.9455 22.4936 94.4255 24.8499 94.4255C27.2499 94.4255 29.1481 93.9891 30.5445 93.1164C31.9408 92.2 32.639 90.9782 32.639 89.4509C32.639 88.0982 32.2899 87.0509 31.5917 86.3091C30.9372 85.5673 29.8026 85.0436 28.1881 84.7382L20.7917 83.2327C16.4717 82.36 13.199 80.7018 10.9736 78.2582C8.79173 75.8145 7.70082 72.6073 7.70082 68.6364ZM54.0272 118.709V70.2727H63.5181L64.0417 74.2655C64.9581 72.7382 66.3763 71.5164 68.2963 70.6C70.2163 69.6836 72.3326 69.2255 74.6454 69.2255C77.6999 69.2255 80.3836 69.9018 82.6963 71.2545C85.009 72.6073 86.8199 74.5491 88.129 77.08C89.4381 79.5673 90.0926 82.5782 90.0926 86.1127C90.0926 89.56 89.4817 92.6364 88.2599 95.3418C87.0817 98.0036 85.3363 100.098 83.0236 101.625C80.7545 103.153 77.9836 103.916 74.7108 103.916C72.4417 103.916 70.3472 103.524 68.4272 102.738C66.5072 101.953 65.0672 100.949 64.1072 99.7273V118.709H54.0272ZM64.1726 86.6364C64.1726 88.2509 64.4999 89.6909 65.1545 90.9564C65.8526 92.1782 66.7908 93.1382 67.969 93.8364C69.1908 94.4909 70.5872 94.8182 72.1581 94.8182C73.7726 94.8182 75.1472 94.4691 76.2817 93.7709C77.4599 93.0727 78.3545 92.1127 78.9654 90.8909C79.6199 89.6691 79.9472 88.2509 79.9472 86.6364C79.9472 85.0218 79.6199 83.6036 78.9654 82.3818C78.3545 81.16 77.4599 80.2 76.2817 79.5018C75.1472 78.8036 73.7726 78.4545 72.1581 78.4545C70.5872 78.4545 69.1908 78.8036 67.969 79.5018C66.7908 80.1564 65.8526 81.0945 65.1545 82.3164C64.4999 83.5382 64.1726 84.9782 64.1726 86.6364ZM123.411 70.2727V79.7636H120.204C117.324 79.7636 115.055 80.4618 113.397 81.8582C111.782 83.2545 110.975 85.5673 110.975 88.7964V103H100.895V70.3382H110.386L111.171 77.3418H110.255C110.691 75.16 111.673 73.3709 113.201 71.9745C114.771 70.5345 116.888 69.8145 119.55 69.8145C120.161 69.8145 120.771 69.8582 121.382 69.9455C122.037 69.9891 122.713 70.0982 123.411 70.2727ZM130.783 86.5709C130.783 83.1236 131.546 80.1127 133.074 77.5382C134.644 74.92 136.783 72.8909 139.488 71.4509C142.237 70.0109 145.357 69.2909 148.848 69.2909C152.339 69.2909 155.437 70.0109 158.143 71.4509C160.848 72.8909 162.964 74.92 164.492 77.5382C166.063 80.1127 166.848 83.1236 166.848 86.5709C166.848 90.0182 166.063 93.0291 164.492 95.6036C162.964 98.1782 160.848 100.185 158.143 101.625C155.437 103.065 152.339 103.785 148.848 103.785C145.357 103.785 142.237 103.065 139.488 101.625C136.783 100.185 134.644 98.1782 133.074 95.6036C131.546 93.0291 130.783 90.0182 130.783 86.5709ZM140.928 86.5055C140.928 88.1636 141.255 89.6255 141.91 90.8909C142.608 92.1127 143.546 93.0727 144.724 93.7709C145.903 94.4255 147.277 94.7527 148.848 94.7527C150.419 94.7527 151.794 94.4255 152.972 93.7709C154.15 93.0727 155.066 92.1127 155.721 90.8909C156.375 89.6255 156.703 88.1636 156.703 86.5055C156.703 84.8473 156.375 83.4073 155.721 82.1855C155.066 80.9636 154.15 80.0255 152.972 79.3709C151.794 78.6727 150.419 78.3236 148.848 78.3236C147.277 78.3236 145.903 78.6727 144.724 79.3709C143.546 80.0255 142.608 80.9636 141.91 82.1855C141.255 83.4073 140.928 84.8473 140.928 86.5055ZM198.656 70.2727H208.736V103H199.245L198.59 99.3345C197.587 100.687 196.147 101.778 194.27 102.607C192.438 103.436 190.539 103.851 188.576 103.851C184.867 103.851 181.921 102.695 179.739 100.382C177.601 98.0255 176.532 94.84 176.532 90.8255V70.2727H186.612V87.16C186.612 89.8218 187.092 91.7855 188.052 93.0509C189.012 94.2727 190.518 94.8836 192.569 94.8836C194.75 94.8836 196.299 94.2945 197.216 93.1164C198.176 91.8945 198.656 89.9527 198.656 87.2909V70.2727ZM218.224 70.2727H240.74V78.6509H218.224V70.2727ZM234.522 103H224.442V60.1273H234.522V103Z"/>
</mask>
<path d="M7.70082 68.6364C7.70082 65.7127 8.46446 63.1382 9.99173 60.9127C11.519 58.6436 13.6136 56.8764 16.2754 55.6109C18.9808 54.3018 22.0572 53.6473 25.5045 53.6473C28.9954 53.6473 32.0063 54.2582 34.5372 55.48C37.0681 56.7018 39.0099 58.4255 40.3626 60.6509C41.759 62.8764 42.4572 65.5164 42.4572 68.5709H31.919C31.919 66.8691 31.3299 65.5382 30.1517 64.5782C28.9736 63.5745 27.3808 63.0727 25.3736 63.0727C23.2354 63.0727 21.5117 63.5309 20.2026 64.4473C18.9372 65.3636 18.3045 66.6291 18.3045 68.2436C18.3045 69.7273 18.6972 70.8618 19.4826 71.6473C20.2681 72.4327 21.5117 73 23.2136 73.3491L30.479 74.8545C34.799 75.7273 38.0063 77.2545 40.1008 79.4364C42.1954 81.5745 43.2426 84.5636 43.2426 88.4036C43.2426 91.5018 42.479 94.2291 40.9517 96.5855C39.4245 98.8982 37.2645 100.687 34.4717 101.953C31.7226 103.218 28.4936 103.851 24.7845 103.851C21.2063 103.851 18.0645 103.24 15.359 102.018C12.6972 100.796 10.6245 99.0727 9.14082 96.8473C7.70082 94.5782 6.98082 91.9382 6.98082 88.9273H17.519C17.519 90.6727 18.1517 92.0255 19.4172 92.9855C20.6826 93.9455 22.4936 94.4255 24.8499 94.4255C27.2499 94.4255 29.1481 93.9891 30.5445 93.1164C31.9408 92.2 32.639 90.9782 32.639 89.4509C32.639 88.0982 32.2899 87.0509 31.5917 86.3091C30.9372 85.5673 29.8026 85.0436 28.1881 84.7382L20.7917 83.2327C16.4717 82.36 13.199 80.7018 10.9736 78.2582C8.79173 75.8145 7.70082 72.6073 7.70082 68.6364ZM54.0272 118.709V70.2727H63.5181L64.0417 74.2655C64.9581 72.7382 66.3763 71.5164 68.2963 70.6C70.2163 69.6836 72.3326 69.2255 74.6454 69.2255C77.6999 69.2255 80.3836 69.9018 82.6963 71.2545C85.009 72.6073 86.8199 74.5491 88.129 77.08C89.4381 79.5673 90.0926 82.5782 90.0926 86.1127C90.0926 89.56 89.4817 92.6364 88.2599 95.3418C87.0817 98.0036 85.3363 100.098 83.0236 101.625C80.7545 103.153 77.9836 103.916 74.7108 103.916C72.4417 103.916 70.3472 103.524 68.4272 102.738C66.5072 101.953 65.0672 100.949 64.1072 99.7273V118.709H54.0272ZM64.1726 86.6364C64.1726 88.2509 64.4999 89.6909 65.1545 90.9564C65.8526 92.1782 66.7908 93.1382 67.969 93.8364C69.1908 94.4909 70.5872 94.8182 72.1581 94.8182C73.7726 94.8182 75.1472 94.4691 76.2817 93.7709C77.4599 93.0727 78.3545 92.1127 78.9654 90.8909C79.6199 89.6691 79.9472 88.2509 79.9472 86.6364C79.9472 85.0218 79.6199 83.6036 78.9654 82.3818C78.3545 81.16 77.4599 80.2 76.2817 79.5018C75.1472 78.8036 73.7726 78.4545 72.1581 78.4545C70.5872 78.4545 69.1908 78.8036 67.969 79.5018C66.7908 80.1564 65.8526 81.0945 65.1545 82.3164C64.4999 83.5382 64.1726 84.9782 64.1726 86.6364ZM123.411 70.2727V79.7636H120.204C117.324 79.7636 115.055 80.4618 113.397 81.8582C111.782 83.2545 110.975 85.5673 110.975 88.7964V103H100.895V70.3382H110.386L111.171 77.3418H110.255C110.691 75.16 111.673 73.3709 113.201 71.9745C114.771 70.5345 116.888 69.8145 119.55 69.8145C120.161 69.8145 120.771 69.8582 121.382 69.9455C122.037 69.9891 122.713 70.0982 123.411 70.2727ZM130.783 86.5709C130.783 83.1236 131.546 80.1127 133.074 77.5382C134.644 74.92 136.783 72.8909 139.488 71.4509C142.237 70.0109 145.357 69.2909 148.848 69.2909C152.339 69.2909 155.437 70.0109 158.143 71.4509C160.848 72.8909 162.964 74.92 164.492 77.5382C166.063 80.1127 166.848 83.1236 166.848 86.5709C166.848 90.0182 166.063 93.0291 164.492 95.6036C162.964 98.1782 160.848 100.185 158.143 101.625C155.437 103.065 152.339 103.785 148.848 103.785C145.357 103.785 142.237 103.065 139.488 101.625C136.783 100.185 134.644 98.1782 133.074 95.6036C131.546 93.0291 130.783 90.0182 130.783 86.5709ZM140.928 86.5055C140.928 88.1636 141.255 89.6255 141.91 90.8909C142.608 92.1127 143.546 93.0727 144.724 93.7709C145.903 94.4255 147.277 94.7527 148.848 94.7527C150.419 94.7527 151.794 94.4255 152.972 93.7709C154.15 93.0727 155.066 92.1127 155.721 90.8909C156.375 89.6255 156.703 88.1636 156.703 86.5055C156.703 84.8473 156.375 83.4073 155.721 82.1855C155.066 80.9636 154.15 80.0255 152.972 79.3709C151.794 78.6727 150.419 78.3236 148.848 78.3236C147.277 78.3236 145.903 78.6727 144.724 79.3709C143.546 80.0255 142.608 80.9636 141.91 82.1855C141.255 83.4073 140.928 84.8473 140.928 86.5055ZM198.656 70.2727H208.736V103H199.245L198.59 99.3345C197.587 100.687 196.147 101.778 194.27 102.607C192.438 103.436 190.539 103.851 188.576 103.851C184.867 103.851 181.921 102.695 179.739 100.382C177.601 98.0255 176.532 94.84 176.532 90.8255V70.2727H186.612V87.16C186.612 89.8218 187.092 91.7855 188.052 93.0509C189.012 94.2727 190.518 94.8836 192.569 94.8836C194.75 94.8836 196.299 94.2945 197.216 93.1164C198.176 91.8945 198.656 89.9527 198.656 87.2909V70.2727ZM218.224 70.2727H240.74V78.6509H218.224V70.2727ZM234.522 103H224.442V60.1273H234.522V103Z" fill="url(#paint0_linear_326_1592)"/>
<path d="M9.99173 60.9127L12.4653 62.6103L12.4729 62.5991L12.4805 62.5879L9.99173 60.9127ZM16.2754 55.6109L17.5634 58.3203L17.5728 58.3159L17.5821 58.3114L16.2754 55.6109ZM40.3626 60.6509L37.7991 62.2092L37.8101 62.2273L37.8214 62.2454L40.3626 60.6509ZM42.4572 68.5709V71.5709H45.4572V68.5709H42.4572ZM31.919 68.5709H28.919V71.5709H31.919V68.5709ZM30.1517 64.5782L28.2063 66.8619L28.2313 66.8832L28.2567 66.9039L30.1517 64.5782ZM20.2026 64.4473L18.4823 61.9896L18.4626 62.0034L18.4431 62.0174L20.2026 64.4473ZM19.4826 71.6473L21.604 69.526H21.604L19.4826 71.6473ZM23.2136 73.3491L23.8222 70.4115L23.8164 70.4103L23.2136 73.3491ZM30.479 74.8545L29.8703 77.7921L29.8776 77.7937L29.8849 77.7951L30.479 74.8545ZM40.1008 79.4364L37.9367 81.514L37.9472 81.5249L37.9577 81.5357L40.1008 79.4364ZM40.9517 96.5855L43.4551 98.2386L43.4622 98.2279L43.4692 98.2171L40.9517 96.5855ZM34.4717 101.953L33.2335 99.2202L33.2254 99.2239L33.2173 99.2276L34.4717 101.953ZM15.359 102.018L14.1075 104.745L14.1159 104.749L14.1242 104.752L15.359 102.018ZM9.14082 96.8473L6.60783 98.4547L6.62593 98.4833L6.64467 98.5114L9.14082 96.8473ZM6.98082 88.9273V85.9273H3.98082L3.98082 88.9273H6.98082ZM17.519 88.9273H20.519V85.9273H17.519V88.9273ZM19.4172 92.9855L17.604 95.3755V95.3755L19.4172 92.9855ZM30.5445 93.1164L32.1345 95.6604L32.1626 95.6427L32.1904 95.6245L30.5445 93.1164ZM31.5917 86.3091L29.3422 88.294L29.3741 88.3301L29.4071 88.3652L31.5917 86.3091ZM28.1881 84.7382L27.5897 87.6779L27.6101 87.682L27.6304 87.6859L28.1881 84.7382ZM20.7917 83.2327L21.3901 80.293L21.3858 80.2921L20.7917 83.2327ZM10.9736 78.2582L8.73574 80.2562L8.74558 80.2673L8.75552 80.2782L10.9736 78.2582ZM7.70082 68.6364H10.7008C10.7008 66.2659 11.3097 64.2941 12.4653 62.6103L9.99173 60.9127L7.51819 59.2152C5.61924 61.9822 4.70082 65.1596 4.70082 68.6364H7.70082ZM9.99173 60.9127L12.4805 62.5879C13.6843 60.7994 15.3483 59.3734 17.5634 58.3203L16.2754 55.6109L14.9873 52.9015C11.8788 54.3793 9.35376 56.4879 7.50297 59.2376L9.99173 60.9127ZM16.2754 55.6109L17.5821 58.3114C19.8241 57.2265 22.4432 56.6473 25.5045 56.6473V53.6473V50.6473C21.6712 50.6473 18.1375 51.3771 14.9687 52.9104L16.2754 55.6109ZM25.5045 53.6473V56.6473C28.6505 56.6473 31.1951 57.1979 33.2329 58.1817L34.5372 55.48L35.8414 52.7783C32.8174 51.3185 29.3402 50.6473 25.5045 50.6473V53.6473ZM34.5372 55.48L33.2329 58.1817C35.2856 59.1726 36.7709 60.5177 37.7991 62.2092L40.3626 60.6509L42.9262 59.0927C41.2489 56.3332 38.8506 54.231 35.8414 52.7783L34.5372 55.48ZM40.3626 60.6509L37.8214 62.2454C38.872 63.9196 39.4572 65.987 39.4572 68.5709H42.4572H45.4572C45.4572 65.0457 44.646 61.8331 42.9038 59.0564L40.3626 60.6509ZM42.4572 68.5709V65.5709H31.919V68.5709V71.5709H42.4572V68.5709ZM31.919 68.5709H34.919C34.919 66.0894 34.0137 63.8552 32.0468 62.2525L30.1517 64.5782L28.2567 66.9039C28.6462 67.2212 28.919 67.6488 28.919 68.5709H31.919ZM30.1517 64.5782L32.0971 62.2945C30.2319 60.7055 27.8781 60.0727 25.3736 60.0727V63.0727L25.3736 66.0727C26.8836 66.0727 27.7152 66.4435 28.2063 66.8619L30.1517 64.5782ZM25.3736 63.0727V60.0727C22.8246 60.0727 20.4407 60.6186 18.4823 61.9896L20.2026 64.4473L21.923 66.905C22.5827 66.4432 23.6461 66.0727 25.3736 66.0727L25.3736 63.0727ZM20.2026 64.4473L18.4431 62.0174C16.3683 63.5199 15.3045 65.705 15.3045 68.2436H18.3045H21.3045C21.3045 67.5531 21.5061 67.2074 21.9622 66.8771L20.2026 64.4473ZM18.3045 68.2436H15.3045C15.3045 70.2472 15.8444 72.2517 17.3613 73.7686L19.4826 71.6473L21.604 69.526C21.55 69.472 21.3045 69.2074 21.3045 68.2436H18.3045ZM19.4826 71.6473L17.3613 73.7686C18.7351 75.1424 20.6327 75.8821 22.6107 76.2879L23.2136 73.3491L23.8164 70.4103C22.3908 70.1179 21.801 69.723 21.604 69.526L19.4826 71.6473ZM23.2136 73.3491L22.6049 76.2867L29.8703 77.7921L30.479 74.8545L31.0877 71.9169L23.8222 70.4115L23.2136 73.3491ZM30.479 74.8545L29.8849 77.7951C33.8669 78.5996 36.4184 79.9324 37.9367 81.514L40.1008 79.4364L42.265 77.3588C39.5942 74.5767 35.7312 72.855 31.0731 71.914L30.479 74.8545ZM40.1008 79.4364L37.9577 81.5357C39.3597 82.9669 40.2426 85.1168 40.2426 88.4036H43.2426H46.2426C46.2426 84.0105 45.031 80.1822 42.2439 77.337L40.1008 79.4364ZM43.2426 88.4036H40.2426C40.2426 90.9848 39.6144 93.1329 38.4343 94.9538L40.9517 96.5855L43.4692 98.2171C45.3436 95.3252 46.2426 92.0188 46.2426 88.4036H43.2426ZM40.9517 96.5855L38.4483 94.9323C37.2652 96.7239 35.5678 98.1624 33.2335 99.2202L34.4717 101.953L35.7099 104.685C38.9611 103.212 41.5837 101.072 43.4551 98.2386L40.9517 96.5855ZM34.4717 101.953L33.2173 99.2276C30.94 100.276 28.156 100.851 24.7845 100.851V103.851V106.851C28.8311 106.851 32.5053 106.161 35.7262 104.678L34.4717 101.953ZM24.7845 103.851V100.851C21.5462 100.851 18.8399 100.298 16.5938 99.2841L15.359 102.018L14.1242 104.752C17.289 106.182 20.8663 106.851 24.7845 106.851V103.851ZM15.359 102.018L16.6105 99.2917C14.4043 98.279 12.7832 96.9025 11.637 95.1832L9.14082 96.8473L6.64467 98.5114C8.46571 101.243 10.9901 103.314 14.1075 104.745L15.359 102.018ZM9.14082 96.8473L11.6738 95.2398C10.5746 93.5077 9.98082 91.4395 9.98082 88.9273H6.98082H3.98082C3.98082 92.4368 4.82704 95.6487 6.60783 98.4547L9.14082 96.8473ZM6.98082 88.9273V91.9273H17.519V88.9273V85.9273H6.98082V88.9273ZM17.519 88.9273H14.519C14.519 91.5043 15.5096 93.7867 17.604 95.3755L19.4172 92.9855L21.2303 90.5954C20.7938 90.2642 20.519 89.8412 20.519 88.9273H17.519ZM19.4172 92.9855L17.604 95.3755C19.5895 96.8817 22.1414 97.4255 24.8499 97.4255V94.4255V91.4255C22.8457 91.4255 21.7758 91.0092 21.2303 90.5954L19.4172 92.9855ZM24.8499 94.4255V97.4255C27.5697 97.4255 30.0907 96.9377 32.1345 95.6604L30.5445 93.1164L28.9545 90.5724C28.2055 91.0405 26.9301 91.4255 24.8499 91.4255V94.4255ZM30.5445 93.1164L32.1904 95.6245C34.3381 94.2151 35.639 92.0962 35.639 89.4509H32.639H29.639C29.639 89.8602 29.5435 90.1849 28.8985 90.6082L30.5445 93.1164ZM32.639 89.4509H35.639C35.639 87.5909 35.1512 85.7138 33.7763 84.253L31.5917 86.3091L29.4071 88.3652C29.4286 88.388 29.639 88.6055 29.639 89.4509H32.639ZM31.5917 86.3091L33.8412 84.3242C32.5374 82.8465 30.6192 82.1449 28.7458 81.7905L28.1881 84.7382L27.6304 87.6859C28.2672 87.8064 28.7058 87.9514 28.9927 88.0839C29.2777 88.2154 29.3532 88.3064 29.3422 88.294L31.5917 86.3091ZM28.1881 84.7382L28.7864 81.7985L21.3901 80.293L20.7917 83.2327L20.1934 86.1725L27.5897 87.6779L28.1881 84.7382ZM20.7917 83.2327L21.3858 80.2921C17.4847 79.504 14.8644 78.075 13.1916 76.2382L10.9736 78.2582L8.75552 80.2782C11.5336 83.3286 15.4588 85.216 20.1977 86.1733L20.7917 83.2327ZM10.9736 78.2582L13.2114 76.2601C11.6197 74.4774 10.7008 72.0343 10.7008 68.6364H7.70082H4.70082C4.70082 73.1803 5.9638 77.1517 8.73574 80.2562L10.9736 78.2582ZM54.0272 118.709H51.0272V121.709H54.0272V118.709ZM54.0272 70.2727V67.2727H51.0272V70.2727H54.0272ZM63.5181 70.2727L66.4926 69.8826L66.1503 67.2727H63.5181V70.2727ZM64.0417 74.2655L61.0672 74.6556L62.1863 83.1888L66.6142 75.8089L64.0417 74.2655ZM68.2963 70.6L69.5885 73.3074V73.3074L68.2963 70.6ZM82.6963 71.2545L81.1816 73.8441V73.8441L82.6963 71.2545ZM88.129 77.08L85.4644 78.4583L85.4693 78.4678L85.4743 78.4772L88.129 77.08ZM88.2599 95.3418L85.5258 94.1071L85.5212 94.1173L85.5166 94.1276L88.2599 95.3418ZM83.0236 101.625L81.3704 99.1221L81.3594 99.1293L81.3484 99.1367L83.0236 101.625ZM68.4272 102.738L69.5631 99.9615V99.9615L68.4272 102.738ZM64.1072 99.7273L66.4661 97.8738L61.1072 91.0533V99.7273H64.1072ZM64.1072 118.709V121.709H67.1072V118.709H64.1072ZM65.1545 90.9564L62.4898 92.3346L62.5186 92.3903L62.5497 92.4448L65.1545 90.9564ZM67.969 93.8364L66.4396 96.4172L66.4953 96.4502L66.5523 96.4808L67.969 93.8364ZM76.2817 93.7709L74.7523 91.19L74.7308 91.2028L74.7094 91.2159L76.2817 93.7709ZM78.9654 90.8909L76.3209 89.4742L76.301 89.5115L76.2821 89.5493L78.9654 90.8909ZM78.9654 82.3818L76.2821 83.7235L76.301 83.7612L76.3209 83.7985L78.9654 82.3818ZM76.2817 79.5018L74.7094 82.0568L74.7308 82.0699L74.7523 82.0827L76.2817 79.5018ZM67.969 79.5018L69.4259 82.1243L69.4417 82.1155L69.4574 82.1065L67.969 79.5018ZM65.1545 82.3164L62.5497 80.8279L62.5294 80.8635L62.51 80.8997L65.1545 82.3164ZM54.0272 118.709H57.0272V70.2727H54.0272H51.0272V118.709H54.0272ZM54.0272 70.2727V73.2727H63.5181V70.2727V67.2727H54.0272V70.2727ZM63.5181 70.2727L60.5436 70.6628L61.0672 74.6556L64.0417 74.2655L67.0163 73.8754L66.4926 69.8826L63.5181 70.2727ZM64.0417 74.2655L66.6142 75.8089C67.1726 74.8783 68.0952 74.0201 69.5885 73.3074L68.2963 70.6L67.0041 67.8926C64.6573 69.0126 62.7436 70.598 61.4693 72.722L64.0417 74.2655ZM68.2963 70.6L69.5885 73.3074C71.0707 72.6 72.7402 72.2254 74.6454 72.2254V69.2254V66.2254C71.925 66.2254 69.3619 66.7673 67.0041 67.8926L68.2963 70.6ZM74.6454 69.2254V72.2254C77.2434 72.2254 79.3898 72.796 81.1816 73.8441L82.6963 71.2545L84.2109 68.665C81.3773 67.0076 78.1564 66.2254 74.6454 66.2254V69.2254ZM82.6963 71.2545L81.1816 73.8441C82.9725 74.8916 84.3989 76.3983 85.4644 78.4583L88.129 77.08L90.7937 75.7017C89.241 72.6998 87.0455 70.3229 84.2109 68.665L82.6963 71.2545ZM88.129 77.08L85.4743 78.4772C86.5056 80.4368 87.0926 82.9423 87.0926 86.1127H90.0926H93.0926C93.0926 82.214 92.3706 78.6977 90.7838 75.6828L88.129 77.08ZM90.0926 86.1127H87.0926C87.0926 89.2024 86.5463 91.8473 85.5258 94.1071L88.2599 95.3418L90.994 96.5766C92.4171 93.4254 93.0926 89.9176 93.0926 86.1127H90.0926ZM88.2599 95.3418L85.5166 94.1276C84.5586 96.2919 83.1791 97.9276 81.3704 99.1221L83.0236 101.625L84.6767 104.129C87.4935 102.269 89.6048 99.7153 91.0032 96.5561L88.2599 95.3418ZM83.0236 101.625L81.3484 99.1367C79.6649 100.27 77.506 100.916 74.7108 100.916V103.916V106.916C78.4611 106.916 81.844 106.036 84.6987 104.114L83.0236 101.625ZM74.7108 103.916V100.916C72.7946 100.916 71.09 100.586 69.5631 99.9615L68.4272 102.738L67.2913 105.515C69.6043 106.461 72.0889 106.916 74.7108 106.916V103.916ZM68.4272 102.738L69.5631 99.9615C67.9684 99.3092 67.0154 98.5728 66.4661 97.8738L64.1072 99.7273L61.7482 101.581C63.119 103.325 65.046 104.596 67.2913 105.515L68.4272 102.738ZM64.1072 99.7273H61.1072V118.709H64.1072H67.1072V99.7273H64.1072ZM64.1072 118.709V115.709H54.0272V118.709V121.709H64.1072V118.709ZM64.1726 86.6364H61.1726C61.1726 88.666 61.5871 90.5893 62.4898 92.3346L65.1545 90.9564L67.8191 89.5781C67.4128 88.7925 67.1726 87.8358 67.1726 86.6364H64.1726ZM65.1545 90.9564L62.5497 92.4448C63.4983 94.1047 64.8017 95.4466 66.4396 96.4172L67.969 93.8364L69.4984 91.2555C68.7799 90.8297 68.207 90.2516 67.7592 89.4679L65.1545 90.9564ZM67.969 93.8364L66.5523 96.4808C68.2651 97.3984 70.1596 97.8182 72.1581 97.8182V94.8182V91.8182C71.0148 91.8182 70.1165 91.5835 69.3857 91.1919L67.969 93.8364ZM72.1581 94.8182V97.8182C74.2097 97.8182 76.1553 97.3713 77.854 96.3259L76.2817 93.7709L74.7094 91.2159C74.1391 91.5669 73.3356 91.8182 72.1581 91.8182V94.8182ZM76.2817 93.7709L77.8111 96.3518C79.4836 95.3607 80.7794 93.9711 81.6487 92.2326L78.9654 90.8909L76.2821 89.5493C75.9295 90.2544 75.4362 90.7848 74.7523 91.19L76.2817 93.7709ZM78.9654 90.8909L81.6098 92.3076C82.5336 90.5832 82.9472 88.6634 82.9472 86.6364H79.9472H76.9472C76.9472 87.8384 76.7063 88.755 76.3209 89.4742L78.9654 90.8909ZM79.9472 86.6364H82.9472C82.9472 84.6093 82.5336 82.6895 81.6098 80.9651L78.9654 82.3818L76.3209 83.7985C76.7063 84.5178 76.9472 85.4343 76.9472 86.6364H79.9472ZM78.9654 82.3818L81.6487 81.0402C80.7794 79.3017 79.4836 77.912 77.8111 76.9209L76.2817 79.5018L74.7523 82.0827C75.4362 82.488 75.9295 83.0183 76.2821 83.7235L78.9654 82.3818ZM76.2817 79.5018L77.854 76.9468C76.1553 75.9014 74.2097 75.4545 72.1581 75.4545V78.4545V81.4545C73.3356 81.4545 74.1391 81.7058 74.7094 82.0568L76.2817 79.5018ZM72.1581 78.4545V75.4545C70.1272 75.4545 68.2067 75.9107 66.4806 76.8971L67.969 79.5018L69.4574 82.1065C70.1749 81.6965 71.0472 81.4545 72.1581 81.4545V78.4545ZM67.969 79.5018L66.5121 76.8793C64.8333 77.812 63.5072 79.1523 62.5497 80.8279L65.1545 82.3164L67.7592 83.8048C68.1981 83.0368 68.7484 82.5007 69.4259 82.1243L67.969 79.5018ZM65.1545 82.3164L62.51 80.8997C61.5803 82.6351 61.1726 84.5805 61.1726 86.6364H64.1726H67.1726C67.1726 85.3759 67.4195 84.4412 67.7989 83.733L65.1545 82.3164ZM123.411 70.2727H126.411V67.9304L124.139 67.3623L123.411 70.2727ZM123.411 79.7636V82.7636H126.411V79.7636H123.411ZM113.397 81.8582L111.464 79.5634L111.449 79.5762L111.434 79.5891L113.397 81.8582ZM110.975 103V106H113.975V103H110.975ZM100.895 103H97.8951V106H100.895V103ZM100.895 70.3382V67.3382H97.8951V70.3382H100.895ZM110.386 70.3382L113.367 70.0038L113.068 67.3382H110.386V70.3382ZM111.171 77.3418V80.3418H114.527L114.153 77.0075L111.171 77.3418ZM110.255 77.3418L107.313 76.7535L106.596 80.3418H110.255V77.3418ZM113.201 71.9745L115.225 74.1886L115.228 74.186L113.201 71.9745ZM121.382 69.9455L120.958 72.9153L121.07 72.9313L121.183 72.9388L121.382 69.9455ZM123.411 70.2727H120.411V79.7636H123.411H126.411V70.2727H123.411ZM123.411 79.7636V76.7636H120.204V79.7636V82.7636H123.411V79.7636ZM120.204 79.7636V76.7636C116.851 76.7636 113.819 77.5805 111.464 79.5634L113.397 81.8582L115.329 84.1529C116.291 83.3431 117.797 82.7636 120.204 82.7636V79.7636ZM113.397 81.8582L111.434 79.5891C108.883 81.7954 107.975 85.1463 107.975 88.7964H110.975H113.975C113.975 85.9882 114.681 84.7137 115.359 84.1273L113.397 81.8582ZM110.975 88.7964H107.975V103H110.975H113.975V88.7964H110.975ZM110.975 103V100H100.895V103V106H110.975V103ZM100.895 103H103.895V70.3382H100.895H97.8951V103H100.895ZM100.895 70.3382V73.3382H110.386V70.3382V67.3382H100.895V70.3382ZM110.386 70.3382L107.405 70.6725L108.19 77.6762L111.171 77.3418L114.153 77.0075L113.367 70.0038L110.386 70.3382ZM111.171 77.3418V74.3418H110.255V77.3418V80.3418H111.171V77.3418ZM110.255 77.3418L113.197 77.9302C113.518 76.3242 114.205 75.1214 115.225 74.1886L113.201 71.9745L111.176 69.7605C109.142 71.6205 107.865 73.9958 107.313 76.7535L110.255 77.3418ZM113.201 71.9745L115.228 74.186C116.117 73.3711 117.443 72.8145 119.55 72.8145V69.8145V66.8145C116.332 66.8145 113.426 67.698 111.173 69.7631L113.201 71.9745ZM119.55 69.8145V72.8145C120.017 72.8145 120.486 72.8479 120.958 72.9153L121.382 69.9455L121.807 66.9756C121.057 66.8685 120.304 66.8145 119.55 66.8145V69.8145ZM121.382 69.9455L121.183 72.9388C121.643 72.9695 122.142 73.0478 122.684 73.1832L123.411 70.2727L124.139 67.3623C123.284 67.1486 122.431 67.0087 121.582 66.9521L121.382 69.9455ZM133.074 77.5382L130.501 75.9947L130.497 76.0011L130.493 76.0076L133.074 77.5382ZM139.488 71.4509L138.096 68.7934L138.087 68.798L138.079 68.8027L139.488 71.4509ZM158.143 71.4509L156.733 74.0992H156.733L158.143 71.4509ZM164.492 77.5382L161.9 79.0498L161.915 79.0754L161.931 79.1008L164.492 77.5382ZM164.492 95.6036L161.931 94.041L161.921 94.057L161.912 94.073L164.492 95.6036ZM158.143 101.625L156.733 98.9772V98.9772L158.143 101.625ZM139.488 101.625L138.079 104.274L138.087 104.278L138.096 104.283L139.488 101.625ZM133.074 95.6036L130.493 97.1342L130.503 97.1503L130.513 97.1662L133.074 95.6036ZM141.91 90.8909L139.245 92.2692L139.274 92.3249L139.305 92.3793L141.91 90.8909ZM144.724 93.7709L143.195 96.3518L143.231 96.3731L143.268 96.3934L144.724 93.7709ZM152.972 93.7709L154.429 96.3934L154.465 96.3731L154.501 96.3518L152.972 93.7709ZM155.721 90.8909L158.365 92.3076L158.376 92.2885L158.385 92.2692L155.721 90.8909ZM155.721 82.1855L158.365 80.7688V80.7688L155.721 82.1855ZM152.972 79.3709L151.442 81.9518L151.478 81.9731L151.515 81.9934L152.972 79.3709ZM144.724 79.3709L146.181 81.9934L146.218 81.9731L146.254 81.9518L144.724 79.3709ZM141.91 82.1855L139.305 80.697L139.285 80.7326L139.265 80.7688L141.91 82.1855ZM130.783 86.5709H133.783C133.783 83.5793 134.441 81.1136 135.654 79.0688L133.074 77.5382L130.493 76.0076C128.652 79.1119 127.783 82.668 127.783 86.5709H130.783ZM133.074 77.5382L135.646 79.0817C136.936 76.9323 138.671 75.2843 140.898 74.0992L139.488 71.4509L138.079 68.8027C134.894 70.4975 132.353 72.9077 130.501 75.9947L133.074 77.5382ZM139.488 71.4509L140.88 74.1084C143.148 72.9202 145.781 72.2909 148.848 72.2909V69.2909V66.2909C144.934 66.2909 141.326 67.1016 138.096 68.7934L139.488 71.4509ZM148.848 69.2909V72.2909C151.916 72.2909 154.519 72.9205 156.733 74.0992L158.143 71.4509L159.552 68.8027C156.356 67.1013 152.762 66.2909 148.848 66.2909V69.2909ZM158.143 71.4509L156.733 74.0992C158.952 75.2804 160.657 76.9185 161.9 79.0498L164.492 77.5382L167.083 76.0266C165.272 72.9215 162.744 70.5014 159.552 68.8027L158.143 71.4509ZM164.492 77.5382L161.931 79.1008C163.175 81.1404 163.848 83.5945 163.848 86.5709H166.848H169.848C169.848 82.6528 168.95 79.085 167.053 75.9756L164.492 77.5382ZM166.848 86.5709H163.848C163.848 89.5474 163.175 92.0014 161.931 94.041L164.492 95.6036L167.053 97.1662C168.95 94.0568 169.848 90.489 169.848 86.5709H166.848ZM164.492 95.6036L161.912 94.073C160.672 96.1631 158.965 97.789 156.733 98.9772L158.143 101.625L159.552 104.274C162.731 102.582 165.257 100.193 167.072 97.1342L164.492 95.6036ZM158.143 101.625L156.733 98.9772C154.519 100.156 151.916 100.785 148.848 100.785V103.785V106.785C152.762 106.785 156.356 105.975 159.552 104.274L158.143 101.625ZM148.848 103.785V100.785C145.781 100.785 143.148 100.156 140.88 98.968L139.488 101.625L138.096 104.283C141.326 105.975 144.934 106.785 148.848 106.785V103.785ZM139.488 101.625L140.898 98.9772C138.658 97.7852 136.921 96.1494 135.634 94.041L133.074 95.6036L130.513 97.1662C132.368 100.207 134.907 102.586 138.079 104.274L139.488 101.625ZM133.074 95.6036L135.654 94.073C134.441 92.0282 133.783 89.5625 133.783 86.5709H130.783H127.783C127.783 90.4739 128.652 94.0299 130.493 97.1342L133.074 95.6036ZM140.928 86.5055H137.928C137.928 88.5645 138.337 90.5129 139.245 92.2692L141.91 90.8909L144.575 89.5126C144.174 88.738 143.928 87.7627 143.928 86.5055H140.928ZM141.91 90.8909L139.305 92.3793C140.254 94.0393 141.557 95.3812 143.195 96.3518L144.724 93.7709L146.254 91.19C145.535 90.7643 144.962 90.1862 144.515 89.4025L141.91 90.8909ZM144.724 93.7709L143.268 96.3934C144.96 97.3337 146.852 97.7527 148.848 97.7527V94.7527V91.7527C147.702 91.7527 146.845 91.5172 146.181 91.1484L144.724 93.7709ZM148.848 94.7527V97.7527C150.844 97.7527 152.736 97.3337 154.429 96.3934L152.972 93.7709L151.515 91.1484C150.851 91.5172 149.994 91.7527 148.848 91.7527V94.7527ZM152.972 93.7709L154.501 96.3518C156.156 95.371 157.456 94.0058 158.365 92.3076L155.721 90.8909L153.076 89.4742C152.677 90.2197 152.144 90.7745 151.442 91.19L152.972 93.7709ZM155.721 90.8909L158.385 92.2692C159.294 90.5129 159.703 88.5645 159.703 86.5055H156.703H153.703C153.703 87.7627 153.457 88.738 153.056 89.5126L155.721 90.8909ZM156.703 86.5055H159.703C159.703 84.4496 159.295 82.5042 158.365 80.7688L155.721 82.1855L153.076 83.6021C153.456 84.3103 153.703 85.245 153.703 86.5055H156.703ZM155.721 82.1855L158.365 80.7688C157.447 79.0546 156.125 77.6909 154.429 76.7484L152.972 79.3709L151.515 81.9934C152.175 82.36 152.686 82.8726 153.076 83.6021L155.721 82.1855ZM152.972 79.3709L154.501 76.79C152.795 75.7792 150.877 75.3236 148.848 75.3236V78.3236V81.3236C149.961 81.3236 150.792 81.5663 151.442 81.9518L152.972 79.3709ZM148.848 78.3236V75.3236C146.82 75.3236 144.901 75.7792 143.195 76.79L144.724 79.3709L146.254 81.9518C146.904 81.5663 147.735 81.3236 148.848 81.3236V78.3236ZM144.724 79.3709L143.268 76.7484C141.589 77.6811 140.263 79.0214 139.305 80.697L141.91 82.1855L144.515 83.6739C144.954 82.9058 145.504 82.3698 146.181 81.9934L144.724 79.3709ZM141.91 82.1855L139.265 80.7688C138.336 82.5042 137.928 84.4496 137.928 86.5055H140.928H143.928C143.928 85.245 144.175 84.3103 144.554 83.6021L141.91 82.1855ZM198.656 70.2727V67.2727H195.656V70.2727H198.656ZM208.736 70.2727H211.736V67.2727H208.736V70.2727ZM208.736 103V106H211.736V103H208.736ZM199.245 103L196.292 103.527L196.733 106H199.245V103ZM198.59 99.3345L201.544 98.8072L200.322 91.9658L196.181 97.547L198.59 99.3345ZM194.27 102.607L193.058 99.8632L193.046 99.8685L193.034 99.8739L194.27 102.607ZM179.739 100.382L177.518 102.398L177.537 102.419L177.557 102.44L179.739 100.382ZM176.532 70.2727V67.2727H173.532V70.2727H176.532ZM186.612 70.2727H189.612V67.2727H186.612V70.2727ZM188.052 93.0509L185.662 94.8641L185.677 94.8844L185.693 94.9044L188.052 93.0509ZM197.216 93.1164L194.857 91.2629L194.852 91.2687L194.848 91.2745L197.216 93.1164ZM198.656 70.2727V73.2727H208.736V70.2727V67.2727H198.656V70.2727ZM208.736 70.2727H205.736V103H208.736H211.736V70.2727H208.736ZM208.736 103V100H199.245V103V106H208.736V103ZM199.245 103L202.198 102.473L201.544 98.8072L198.59 99.3345L195.637 99.8619L196.292 103.527L199.245 103ZM198.59 99.3345L196.181 97.547C195.548 98.4007 194.562 99.1985 193.058 99.8632L194.27 102.607L195.483 105.351C197.731 104.358 199.626 102.974 201 101.122L198.59 99.3345ZM194.27 102.607L193.034 99.8739C191.58 100.532 190.102 100.851 188.576 100.851V103.851V106.851C190.976 106.851 193.295 106.341 195.507 105.341L194.27 102.607ZM188.576 103.851V100.851C185.543 100.851 183.441 99.9341 181.922 98.3232L179.739 100.382L177.557 102.44C180.401 105.455 184.191 106.851 188.576 106.851V103.851ZM179.739 100.382L181.961 98.3658C180.445 96.695 179.532 94.2971 179.532 90.8255H176.532H173.532C173.532 95.3829 174.758 99.3559 177.518 102.398L179.739 100.382ZM176.532 90.8255H179.532V70.2727H176.532H173.532V90.8255H176.532ZM176.532 70.2727V73.2727H186.612V70.2727V67.2727H176.532V70.2727ZM186.612 70.2727H183.612V87.16H186.612H189.612V70.2727H186.612ZM186.612 87.16H183.612C183.612 90.0743 184.118 92.8282 185.662 94.8641L188.052 93.0509L190.442 91.2377C190.067 90.7427 189.612 89.5694 189.612 87.16H186.612ZM188.052 93.0509L185.693 94.9044C187.393 97.0678 189.915 97.8836 192.569 97.8836V94.8836V91.8836C191.12 91.8836 190.631 91.4776 190.411 91.1974L188.052 93.0509ZM192.569 94.8836V97.8836C195.231 97.8836 197.873 97.1582 199.584 94.9582L197.216 93.1164L194.848 91.2745C194.726 91.4309 194.269 91.8836 192.569 91.8836V94.8836ZM197.216 93.1164L199.575 94.9698C201.156 92.9577 201.656 90.1915 201.656 87.2909H198.656H195.656C195.656 89.7139 195.196 90.8314 194.857 91.2629L197.216 93.1164ZM198.656 87.2909H201.656V70.2727H198.656H195.656V87.2909H198.656ZM218.224 70.2727V67.2727H215.224V70.2727H218.224ZM240.74 70.2727H243.74V67.2727H240.74V70.2727ZM240.74 78.6509V81.6509H243.74V78.6509H240.74ZM218.224 78.6509H215.224V81.6509H218.224V78.6509ZM234.522 103V106H237.522V103H234.522ZM224.442 103H221.442V106H224.442V103ZM224.442 60.1273V57.1273H221.442V60.1273H224.442ZM234.522 60.1273H237.522V57.1273H234.522V60.1273ZM218.224 70.2727V73.2727H240.74V70.2727V67.2727H218.224V70.2727ZM240.74 70.2727H237.74V78.6509H240.74H243.74V70.2727H240.74ZM240.74 78.6509V75.6509H218.224V78.6509V81.6509H240.74V78.6509ZM218.224 78.6509H221.224V70.2727H218.224H215.224V78.6509H218.224ZM234.522 103V100H224.442V103V106H234.522V103ZM224.442 103H227.442V60.1273H224.442H221.442V103H224.442ZM224.442 60.1273V63.1273H234.522V60.1273V57.1273H224.442V60.1273ZM234.522 60.1273H231.522V103H234.522H237.522V60.1273H234.522Z" fill="#604828" mask="url(#path-1-outside-1_326_1592)"/>
<defs>
<linearGradient id="paint0_linear_326_1592" x1="123.409" y1="0" x2="123.409" y2="155.455" gradientUnits="userSpaceOnUse">
<stop offset="0.474633" stop-color="#FDE986"/>
<stop offset="0.517772" stop-color="white" stop-opacity="0.3"/>
<stop offset="0.564766" stop-color="#FEDBB7"/>
<stop offset="0.65696" stop-color="#E77D11"/>
</linearGradient>
</defs>
</svg>
