<svg width="278" height="155" viewBox="0 0 278 155" fill="none" xmlns="http://www.w3.org/2000/svg">
<mask id="path-1-outside-1_326_1621" maskUnits="userSpaceOnUse" x="60" y="51" width="158" height="56" fill="black">
<rect fill="white" x="60" y="51" width="158" height="56"/>
<path d="M87.7725 59.6691V103H77.1689V59.6691H87.7725ZM63.4234 64.3818V54.5636H101.518V64.3818H63.4234ZM130.245 70.2727V79.7636H127.038C124.158 79.7636 121.889 80.4618 120.231 81.8582C118.616 83.2545 117.809 85.5673 117.809 88.7964V103H107.729V70.3382H117.22L118.005 77.3418H117.089C117.525 75.16 118.507 73.3709 120.034 71.9745C121.605 70.5345 123.722 69.8145 126.383 69.8145C126.994 69.8145 127.605 69.8582 128.216 69.9455C128.871 69.9891 129.547 70.0982 130.245 70.2727ZM154.569 103.851C151.296 103.851 148.373 103.109 145.798 101.625C143.267 100.142 141.26 98.1127 139.776 95.5382C138.336 92.92 137.616 89.9309 137.616 86.5709C137.616 83.1673 138.315 80.1782 139.711 77.6036C141.151 74.9855 143.136 72.9345 145.667 71.4509C148.198 69.9673 151.1 69.2255 154.373 69.2255C157.82 69.2255 160.787 69.9455 163.275 71.3855C165.762 72.7818 167.682 74.7891 169.035 77.4073C170.387 79.9818 171.064 83.0582 171.064 86.6364V89.1891L142.918 89.32L143.049 83.1018H161.049C161.049 81.3564 160.46 79.9818 159.282 78.9782C158.104 77.9309 156.489 77.4073 154.438 77.4073C152.736 77.4073 151.34 77.7345 150.249 78.3891C149.202 79.0436 148.416 80.0691 147.893 81.4655C147.369 82.8182 147.107 84.5636 147.107 86.7018C147.107 89.7564 147.718 92.0255 148.94 93.5091C150.206 94.9491 152.147 95.6691 154.766 95.6691C156.686 95.6691 158.278 95.3418 159.544 94.6873C160.809 94.0327 161.616 93.1164 161.966 91.9382H171.195C170.627 95.56 168.838 98.4618 165.827 100.644C162.816 102.782 159.064 103.851 154.569 103.851ZM197.218 103.851C193.946 103.851 191.022 103.109 188.447 101.625C185.917 100.142 183.909 98.1127 182.426 95.5382C180.986 92.92 180.266 89.9309 180.266 86.5709C180.266 83.1673 180.964 80.1782 182.36 77.6036C183.8 74.9855 185.786 72.9345 188.317 71.4509C190.847 69.9673 193.749 69.2255 197.022 69.2255C200.469 69.2255 203.437 69.9455 205.924 71.3855C208.411 72.7818 210.331 74.7891 211.684 77.4073C213.037 79.9818 213.713 83.0582 213.713 86.6364V89.1891L185.567 89.32L185.698 83.1018H203.698C203.698 81.3564 203.109 79.9818 201.931 78.9782C200.753 77.9309 199.138 77.4073 197.087 77.4073C195.386 77.4073 193.989 77.7345 192.898 78.3891C191.851 79.0436 191.066 80.0691 190.542 81.4655C190.018 82.8182 189.757 84.5636 189.757 86.7018C189.757 89.7564 190.367 92.0255 191.589 93.5091C192.855 94.9491 194.797 95.6691 197.415 95.6691C199.335 95.6691 200.927 95.3418 202.193 94.6873C203.458 94.0327 204.266 93.1164 204.615 91.9382H213.844C213.277 95.56 211.487 98.4618 208.477 100.644C205.466 102.782 201.713 103.851 197.218 103.851Z"/>
</mask>
<path d="M87.7725 59.6691V103H77.1689V59.6691H87.7725ZM63.4234 64.3818V54.5636H101.518V64.3818H63.4234ZM130.245 70.2727V79.7636H127.038C124.158 79.7636 121.889 80.4618 120.231 81.8582C118.616 83.2545 117.809 85.5673 117.809 88.7964V103H107.729V70.3382H117.22L118.005 77.3418H117.089C117.525 75.16 118.507 73.3709 120.034 71.9745C121.605 70.5345 123.722 69.8145 126.383 69.8145C126.994 69.8145 127.605 69.8582 128.216 69.9455C128.871 69.9891 129.547 70.0982 130.245 70.2727ZM154.569 103.851C151.296 103.851 148.373 103.109 145.798 101.625C143.267 100.142 141.26 98.1127 139.776 95.5382C138.336 92.92 137.616 89.9309 137.616 86.5709C137.616 83.1673 138.315 80.1782 139.711 77.6036C141.151 74.9855 143.136 72.9345 145.667 71.4509C148.198 69.9673 151.1 69.2255 154.373 69.2255C157.82 69.2255 160.787 69.9455 163.275 71.3855C165.762 72.7818 167.682 74.7891 169.035 77.4073C170.387 79.9818 171.064 83.0582 171.064 86.6364V89.1891L142.918 89.32L143.049 83.1018H161.049C161.049 81.3564 160.46 79.9818 159.282 78.9782C158.104 77.9309 156.489 77.4073 154.438 77.4073C152.736 77.4073 151.34 77.7345 150.249 78.3891C149.202 79.0436 148.416 80.0691 147.893 81.4655C147.369 82.8182 147.107 84.5636 147.107 86.7018C147.107 89.7564 147.718 92.0255 148.94 93.5091C150.206 94.9491 152.147 95.6691 154.766 95.6691C156.686 95.6691 158.278 95.3418 159.544 94.6873C160.809 94.0327 161.616 93.1164 161.966 91.9382H171.195C170.627 95.56 168.838 98.4618 165.827 100.644C162.816 102.782 159.064 103.851 154.569 103.851ZM197.218 103.851C193.946 103.851 191.022 103.109 188.447 101.625C185.917 100.142 183.909 98.1127 182.426 95.5382C180.986 92.92 180.266 89.9309 180.266 86.5709C180.266 83.1673 180.964 80.1782 182.36 77.6036C183.8 74.9855 185.786 72.9345 188.317 71.4509C190.847 69.9673 193.749 69.2255 197.022 69.2255C200.469 69.2255 203.437 69.9455 205.924 71.3855C208.411 72.7818 210.331 74.7891 211.684 77.4073C213.037 79.9818 213.713 83.0582 213.713 86.6364V89.1891L185.567 89.32L185.698 83.1018H203.698C203.698 81.3564 203.109 79.9818 201.931 78.9782C200.753 77.9309 199.138 77.4073 197.087 77.4073C195.386 77.4073 193.989 77.7345 192.898 78.3891C191.851 79.0436 191.066 80.0691 190.542 81.4655C190.018 82.8182 189.757 84.5636 189.757 86.7018C189.757 89.7564 190.367 92.0255 191.589 93.5091C192.855 94.9491 194.797 95.6691 197.415 95.6691C199.335 95.6691 200.927 95.3418 202.193 94.6873C203.458 94.0327 204.266 93.1164 204.615 91.9382H213.844C213.277 95.56 211.487 98.4618 208.477 100.644C205.466 102.782 201.713 103.851 197.218 103.851Z" fill="url(#paint0_linear_326_1621)"/>
<path d="M87.7725 59.6691H90.7725V56.6691H87.7725V59.6691ZM87.7725 103V106H90.7725V103H87.7725ZM77.1689 103H74.1689V106H77.1689V103ZM77.1689 59.6691V56.6691H74.1689V59.6691H77.1689ZM63.4234 64.3818H60.4234V67.3818H63.4234V64.3818ZM63.4234 54.5636V51.5636H60.4234V54.5636H63.4234ZM101.518 54.5636H104.518V51.5636H101.518V54.5636ZM101.518 64.3818V67.3818H104.518V64.3818H101.518ZM87.7725 59.6691H84.7725V103H87.7725H90.7725V59.6691H87.7725ZM87.7725 103V100H77.1689V103V106H87.7725V103ZM77.1689 103H80.1689V59.6691H77.1689H74.1689V103H77.1689ZM77.1689 59.6691V62.6691H87.7725V59.6691V56.6691H77.1689V59.6691ZM63.4234 64.3818H66.4234V54.5636H63.4234H60.4234V64.3818H63.4234ZM63.4234 54.5636V57.5636H101.518V54.5636V51.5636H63.4234V54.5636ZM101.518 54.5636H98.518V64.3818H101.518H104.518V54.5636H101.518ZM101.518 64.3818V61.3818H63.4234V64.3818V67.3818H101.518V64.3818ZM130.245 70.2727H133.245V67.9304L130.973 67.3623L130.245 70.2727ZM130.245 79.7636V82.7636H133.245V79.7636H130.245ZM120.231 81.8582L118.298 79.5634L118.283 79.5762L118.268 79.5891L120.231 81.8582ZM117.809 103V106H120.809V103H117.809ZM107.729 103H104.729V106H107.729V103ZM107.729 70.3382V67.3382H104.729V70.3382H107.729ZM117.22 70.3382L120.201 70.0038L119.902 67.3382H117.22V70.3382ZM118.005 77.3418V80.3418H121.361L120.987 77.0075L118.005 77.3418ZM117.089 77.3418L114.147 76.7535L113.429 80.3418H117.089V77.3418ZM120.034 71.9745L122.059 74.1886L122.062 74.186L120.034 71.9745ZM128.216 69.9455L127.792 72.9153L127.904 72.9313L128.017 72.9388L128.216 69.9455ZM130.245 70.2727H127.245V79.7636H130.245H133.245V70.2727H130.245ZM130.245 79.7636V76.7636H127.038V79.7636V82.7636H130.245V79.7636ZM127.038 79.7636V76.7636C123.685 76.7636 120.653 77.5805 118.298 79.5634L120.231 81.8582L122.163 84.1529C123.125 83.3431 124.631 82.7636 127.038 82.7636V79.7636ZM120.231 81.8582L118.268 79.5891C115.717 81.7954 114.809 85.1463 114.809 88.7964H117.809H120.809C120.809 85.9882 121.515 84.7137 122.193 84.1273L120.231 81.8582ZM117.809 88.7964H114.809V103H117.809H120.809V88.7964H117.809ZM117.809 103V100H107.729V103V106H117.809V103ZM107.729 103H110.729V70.3382H107.729H104.729V103H107.729ZM107.729 70.3382V73.3382H117.22V70.3382V67.3382H107.729V70.3382ZM117.22 70.3382L114.238 70.6725L115.024 77.6762L118.005 77.3418L120.987 77.0075L120.201 70.0038L117.22 70.3382ZM118.005 77.3418V74.3418H117.089V77.3418V80.3418H118.005V77.3418ZM117.089 77.3418L120.031 77.9302C120.352 76.3242 121.038 75.1214 122.059 74.1886L120.034 71.9745L118.01 69.7605C115.976 71.6205 114.699 73.9958 114.147 76.7535L117.089 77.3418ZM120.034 71.9745L122.062 74.186C122.951 73.3711 124.277 72.8145 126.383 72.8145V69.8145V66.8145C123.166 66.8145 120.26 67.698 118.007 69.7631L120.034 71.9745ZM126.383 69.8145V72.8145C126.851 72.8145 127.32 72.8479 127.792 72.9153L128.216 69.9455L128.64 66.9756C127.89 66.8685 127.138 66.8145 126.383 66.8145V69.8145ZM128.216 69.9455L128.017 72.9388C128.477 72.9695 128.976 73.0478 129.518 73.1832L130.245 70.2727L130.973 67.3623C130.118 67.1486 129.265 67.0087 128.416 66.9521L128.216 69.9455ZM145.798 101.625L144.281 104.214L144.291 104.219L144.3 104.225L145.798 101.625ZM139.776 95.5382L137.148 96.9839L137.162 97.0102L137.177 97.0361L139.776 95.5382ZM139.711 77.6036L137.082 76.1579L137.078 76.1656L137.074 76.1733L139.711 77.6036ZM145.667 71.4509L147.185 74.039V74.039L145.667 71.4509ZM163.275 71.3855L161.772 73.9817L161.789 73.9917L161.806 74.0014L163.275 71.3855ZM169.035 77.4073L166.369 78.7843L166.374 78.7935L166.379 78.8027L169.035 77.4073ZM171.064 89.1891L171.078 92.1891L174.064 92.1752V89.1891H171.064ZM142.918 89.32L139.919 89.2569L139.854 92.3343L142.932 92.32L142.918 89.32ZM143.049 83.1018V80.1018H140.112L140.05 83.0387L143.049 83.1018ZM161.049 83.1018V86.1018H164.049V83.1018H161.049ZM159.282 78.9782L157.289 81.2204L157.312 81.2414L157.337 81.2619L159.282 78.9782ZM150.249 78.3891L148.706 75.8166L148.682 75.8306L148.659 75.8451L150.249 78.3891ZM147.893 81.4655L150.691 82.5484L150.696 82.5337L150.702 82.5188L147.893 81.4655ZM148.94 93.5091L146.624 95.4162L146.655 95.4533L146.687 95.4894L148.94 93.5091ZM159.544 94.6873L160.922 97.3519V97.3519L159.544 94.6873ZM161.966 91.9382V88.9382H159.726L159.089 91.0859L161.966 91.9382ZM171.195 91.9382L174.158 92.4024L174.701 88.9382H171.195V91.9382ZM165.827 100.644L167.564 103.09L167.576 103.081L167.588 103.073L165.827 100.644ZM154.569 103.851V100.851C151.768 100.851 149.37 100.221 147.296 99.0262L145.798 101.625L144.3 104.225C147.376 105.997 150.825 106.851 154.569 106.851V103.851ZM145.798 101.625L147.315 99.0374C145.24 97.8206 143.603 96.1698 142.376 94.0403L139.776 95.5382L137.177 97.0361C138.917 100.056 141.295 102.463 144.281 104.214L145.798 101.625ZM139.776 95.5382L142.405 94.0924C141.238 91.97 140.616 89.4894 140.616 86.5709H137.616H134.616C134.616 90.3725 135.435 93.87 137.148 96.9839L139.776 95.5382ZM137.616 86.5709H140.616C140.616 83.5854 141.226 81.1029 142.348 79.0339L139.711 77.6036L137.074 76.1733C135.403 79.2534 134.616 82.7492 134.616 86.5709H137.616ZM139.711 77.6036L142.34 79.0494C143.524 76.896 145.129 75.2438 147.185 74.039L145.667 71.4509L144.15 68.8628C141.144 70.6253 138.778 73.0749 137.082 76.1579L139.711 77.6036ZM145.667 71.4509L147.185 74.039C149.204 72.8553 151.57 72.2254 154.373 72.2254V69.2254V66.2254C150.63 66.2254 147.193 67.0792 144.15 68.8628L145.667 71.4509ZM154.373 69.2254V72.2254C157.398 72.2254 159.824 72.8544 161.772 73.9817L163.275 71.3855L164.778 68.7892C161.75 67.0365 158.242 66.2254 154.373 66.2254V69.2254ZM163.275 71.3855L161.806 74.0014C163.764 75.1008 165.276 76.6689 166.369 78.7843L169.035 77.4073L171.7 76.0302C170.087 72.9092 167.76 70.4629 164.743 68.7695L163.275 71.3855ZM169.035 77.4073L166.379 78.8027C167.459 80.8587 168.064 83.434 168.064 86.6364H171.064H174.064C174.064 82.6824 173.316 79.1049 171.69 76.0119L169.035 77.4073ZM171.064 86.6364H168.064V89.1891H171.064H174.064V86.6364H171.064ZM171.064 89.1891L171.05 86.1891L142.904 86.32L142.918 89.32L142.932 92.32L171.078 92.1891L171.064 89.1891ZM142.918 89.32L145.918 89.3831L146.049 83.165L143.049 83.1018L140.05 83.0387L139.919 89.2569L142.918 89.32ZM143.049 83.1018V86.1018H161.049V83.1018V80.1018H143.049V83.1018ZM161.049 83.1018H164.049C164.049 80.6032 163.165 78.3449 161.227 76.6945L159.282 78.9782L157.337 81.2619C157.755 81.6187 158.049 82.1096 158.049 83.1018H161.049ZM159.282 78.9782L161.275 76.736C159.399 75.0685 156.997 74.4073 154.438 74.4073V77.4073V80.4073C155.981 80.4073 156.808 80.7933 157.289 81.2204L159.282 78.9782ZM154.438 77.4073V74.4073C152.371 74.4073 150.395 74.8031 148.706 75.8166L150.249 78.3891L151.793 80.9616C152.285 80.666 153.102 80.4073 154.438 80.4073V77.4073ZM150.249 78.3891L148.659 75.8451C146.944 76.917 145.79 78.5302 145.084 80.4121L147.893 81.4655L150.702 82.5188C151.043 81.6079 151.46 81.1703 151.839 80.9331L150.249 78.3891ZM147.893 81.4655L145.095 80.3825C144.39 82.2033 144.107 84.3527 144.107 86.7018H147.107H150.107C150.107 84.7745 150.348 83.433 150.691 82.5484L147.893 81.4655ZM147.107 86.7018H144.107C144.107 90.0671 144.765 93.1588 146.624 95.4162L148.94 93.5091L151.256 91.602C150.671 90.8921 150.107 89.4457 150.107 86.7018H147.107ZM148.94 93.5091L146.687 95.4894C148.708 97.7899 151.615 98.6691 154.766 98.6691V95.6691V92.6691C152.68 92.6691 151.703 92.1082 151.194 91.5287L148.94 93.5091ZM154.766 95.6691V98.6691C157.006 98.6691 159.109 98.2899 160.922 97.3519L159.544 94.6873L158.165 92.0226C157.448 92.3938 156.365 92.6691 154.766 92.6691V95.6691ZM159.544 94.6873L160.922 97.3519C162.787 96.3874 164.224 94.8776 164.842 92.7905L161.966 91.9382L159.089 91.0859C159.009 91.3551 158.832 91.6781 158.165 92.0226L159.544 94.6873ZM161.966 91.9382V94.9382H171.195V91.9382V88.9382H161.966V91.9382ZM171.195 91.9382L168.231 91.474C167.789 94.2941 166.442 96.4937 164.067 98.2144L165.827 100.644L167.588 103.073C171.235 100.43 173.466 96.8259 174.158 92.4024L171.195 91.9382ZM165.827 100.644L164.09 98.1977C161.689 99.9033 158.579 100.851 154.569 100.851V103.851V106.851C159.549 106.851 163.944 105.66 167.564 103.09L165.827 100.644ZM188.447 101.625L186.93 104.214L186.94 104.219L186.95 104.225L188.447 101.625ZM182.426 95.5382L179.797 96.9839L179.811 97.0102L179.826 97.0361L182.426 95.5382ZM182.36 77.6036L179.732 76.1579L179.727 76.1656L179.723 76.1733L182.36 77.6036ZM188.317 71.4509L189.834 74.039V74.039L188.317 71.4509ZM205.924 71.3855L204.421 73.9817L204.438 73.9917L204.455 74.0014L205.924 71.3855ZM211.684 77.4073L209.019 78.7843L209.023 78.7935L209.028 78.8027L211.684 77.4073ZM213.713 89.1891L213.727 92.1891L216.713 92.1752V89.1891H213.713ZM185.567 89.32L182.568 89.2569L182.503 92.3343L185.581 92.32L185.567 89.32ZM185.698 83.1018V80.1018H182.761L182.699 83.0387L185.698 83.1018ZM203.698 83.1018V86.1018H206.698V83.1018H203.698ZM201.931 78.9782L199.938 81.2204L199.962 81.2414L199.986 81.2619L201.931 78.9782ZM192.898 78.3891L191.355 75.8166L191.331 75.8306L191.308 75.8451L192.898 78.3891ZM190.542 81.4655L193.34 82.5484L193.345 82.5337L193.351 82.5188L190.542 81.4655ZM191.589 93.5091L189.273 95.4162L189.304 95.4533L189.336 95.4894L191.589 93.5091ZM202.193 94.6873L203.571 97.3519H203.571L202.193 94.6873ZM204.615 91.9382V88.9382H202.375L201.738 91.0859L204.615 91.9382ZM213.844 91.9382L216.808 92.4024L217.35 88.9382H213.844V91.9382ZM208.477 100.644L210.214 103.09L210.225 103.081L210.237 103.073L208.477 100.644ZM197.218 103.851V100.851C194.417 100.851 192.019 100.221 189.945 99.0262L188.447 101.625L186.95 104.225C190.025 105.997 193.475 106.851 197.218 106.851V103.851ZM188.447 101.625L189.965 99.0374C187.889 97.8206 186.252 96.1698 185.025 94.0403L182.426 95.5382L179.826 97.0361C181.566 100.056 183.944 102.463 186.93 104.214L188.447 101.625ZM182.426 95.5382L185.054 94.0924C183.887 91.97 183.266 89.4894 183.266 86.5709H180.266H177.266C177.266 90.3725 178.084 93.87 179.797 96.9839L182.426 95.5382ZM180.266 86.5709H183.266C183.266 83.5854 183.875 81.1029 184.997 79.0339L182.36 77.6036L179.723 76.1733C178.053 79.2534 177.266 82.7492 177.266 86.5709H180.266ZM182.36 77.6036L184.989 79.0494C186.173 76.896 187.778 75.2438 189.834 74.039L188.317 71.4509L186.799 68.8628C183.793 70.6253 181.427 73.0749 179.732 76.1579L182.36 77.6036ZM188.317 71.4509L189.834 74.039C191.853 72.8553 194.219 72.2254 197.022 72.2254V69.2254V66.2254C193.279 66.2254 189.842 67.0792 186.799 68.8628L188.317 71.4509ZM197.022 69.2254V72.2254C200.047 72.2254 202.474 72.8544 204.421 73.9817L205.924 71.3855L207.427 68.7892C204.4 67.0365 200.892 66.2254 197.022 66.2254V69.2254ZM205.924 71.3855L204.455 74.0014C206.413 75.1008 207.926 76.6689 209.019 78.7843L211.684 77.4073L214.349 76.0302C212.737 72.9092 210.409 70.4629 207.392 68.7695L205.924 71.3855ZM211.684 77.4073L209.028 78.8027C210.108 80.8587 210.713 83.434 210.713 86.6364H213.713H216.713C216.713 82.6824 215.965 79.1049 214.34 76.0119L211.684 77.4073ZM213.713 86.6364H210.713V89.1891H213.713H216.713V86.6364H213.713ZM213.713 89.1891L213.699 86.1891L185.553 86.32L185.567 89.32L185.581 92.32L213.727 92.1891L213.713 89.1891ZM185.567 89.32L188.567 89.3831L188.698 83.165L185.698 83.1018L182.699 83.0387L182.568 89.2569L185.567 89.32ZM185.698 83.1018V86.1018H203.698V83.1018V80.1018H185.698V83.1018ZM203.698 83.1018H206.698C206.698 80.6032 205.814 78.3449 203.876 76.6945L201.931 78.9782L199.986 81.2619C200.405 81.6187 200.698 82.1096 200.698 83.1018H203.698ZM201.931 78.9782L203.924 76.736C202.048 75.0685 199.647 74.4073 197.087 74.4073V77.4073V80.4073C198.63 80.4073 199.457 80.7933 199.938 81.2204L201.931 78.9782ZM197.087 77.4073V74.4073C195.02 74.4073 193.044 74.8031 191.355 75.8166L192.898 78.3891L194.442 80.9616C194.934 80.666 195.751 80.4073 197.087 80.4073V77.4073ZM192.898 78.3891L191.308 75.8451C189.593 76.917 188.439 78.5302 187.733 80.4121L190.542 81.4655L193.351 82.5188C193.693 81.6079 194.109 81.1703 194.488 80.9331L192.898 78.3891ZM190.542 81.4655L187.744 80.3825C187.039 82.2033 186.757 84.3527 186.757 86.7018H189.757H192.757C192.757 84.7745 192.997 83.433 193.34 82.5484L190.542 81.4655ZM189.757 86.7018H186.757C186.757 90.0671 187.414 93.1588 189.273 95.4162L191.589 93.5091L193.905 91.602C193.32 90.8921 192.757 89.4457 192.757 86.7018H189.757ZM191.589 93.5091L189.336 95.4894C191.357 97.7899 194.264 98.6691 197.415 98.6691V95.6691V92.6691C195.329 92.6691 194.352 92.1082 193.843 91.5287L191.589 93.5091ZM197.415 95.6691V98.6691C199.655 98.6691 201.758 98.2899 203.571 97.3519L202.193 94.6873L200.815 92.0226C200.097 92.3938 199.014 92.6691 197.415 92.6691V95.6691ZM202.193 94.6873L203.571 97.3519C205.436 96.3874 206.873 94.8776 207.491 92.7905L204.615 91.9382L201.738 91.0859C201.659 91.3551 201.481 91.6781 200.815 92.0226L202.193 94.6873ZM204.615 91.9382V94.9382H213.844V91.9382V88.9382H204.615V91.9382ZM213.844 91.9382L210.88 91.474C210.438 94.2941 209.091 96.4937 206.716 98.2144L208.477 100.644L210.237 103.073C213.884 100.43 216.115 96.8259 216.808 92.4024L213.844 91.9382ZM208.477 100.644L206.74 98.1977C204.338 99.9033 201.228 100.851 197.218 100.851V103.851V106.851C202.198 106.851 206.593 105.66 210.214 103.09L208.477 100.644Z" fill="#604828" mask="url(#path-1-outside-1_326_1621)"/>
<defs>
<linearGradient id="paint0_linear_326_1621" x1="139" y1="0" x2="139" y2="155" gradientUnits="userSpaceOnUse">
<stop offset="0.474633" stop-color="#FDE986"/>
<stop offset="0.517772" stop-color="white" stop-opacity="0.3"/>
<stop offset="0.564766" stop-color="#FEDBB7"/>
<stop offset="0.65696" stop-color="#E77D11"/>
</linearGradient>
</defs>
</svg>
