<svg preserveAspectRatio="none" width="100%" height="100%" overflow="visible" style="display: block;" viewBox="0 0 11.2 14" fill="none" xmlns="http://www.w3.org/2000/svg">
<path id="Vector" d="M0 11.9V10.85H1.4V5.53C1.4 4.55 1.68875 3.67208 2.26625 2.89625C2.84375 2.12042 3.605 1.63333 4.55 1.435V1.05C4.55 0.758333 4.65208 0.510417 4.85625 0.30625C5.06042 0.102083 5.30833 0 5.6 0C5.89167 0 6.13958 0.102083 6.34375 0.30625C6.54792 0.510417 6.65 0.758333 6.65 1.05V1.435C7.595 1.63333 8.35625 2.12042 8.93375 2.89625C9.51125 3.67208 9.8 4.55 9.8 5.53V10.85H11.2V11.9H0ZM5.6 14C5.215 14 4.88542 13.8629 4.61125 13.5888C4.33708 13.3146 4.2 12.985 4.2 12.6H7C7 12.985 6.86292 13.3146 6.58875 13.5888C6.31458 13.8629 5.985 14 5.6 14ZM2.45 10.85H8.75V5.53C8.75 4.655 8.44375 3.91125 7.83125 3.29875C7.21875 2.68625 6.475 2.38 5.6 2.38C4.725 2.38 3.98125 2.68625 3.36875 3.29875C2.75625 3.91125 2.45 4.655 2.45 5.53V10.85Z" fill="var(--fill-0, black)"/>
</svg>
