<svg preserveAspectRatio="none" width="100%" height="100%" overflow="visible" style="display: block;" viewBox="0 0 15 15" fill="none" xmlns="http://www.w3.org/2000/svg">
<g id="Frame">
<path id="Vector" d="M7.03137 10.5625H7.96887V6.54686H7.03137V10.5625ZM7.87512 5.35936C7.97929 5.25519 8.03137 5.13019 8.03137 4.98436C8.03137 4.83853 7.97929 4.71353 7.87512 4.60936C7.77096 4.50519 7.64596 4.45311 7.50012 4.45311C7.35429 4.45311 7.22929 4.50519 7.12512 4.60936C7.02096 4.71353 6.96887 4.83853 6.96887 4.98436C6.96887 5.13019 7.02096 5.25519 7.12512 5.35936C7.22929 5.46353 7.35429 5.51561 7.50012 5.51561C7.64596 5.51561 7.77096 5.46353 7.87512 5.35936ZM7.50012 13.7344C6.04179 13.3698 4.84387 12.5234 3.90637 11.1953C2.96887 9.86717 2.50012 8.41144 2.50012 6.82811V3.10936L7.50012 1.23436L12.5001 3.10936V6.82811C12.5001 8.41144 12.0314 9.86717 11.0939 11.1953C10.1564 12.5234 8.95846 13.3698 7.50012 13.7344ZM7.50012 12.7656C8.69804 12.3698 9.6746 11.6224 10.4298 10.5234C11.185 9.42446 11.5626 8.19269 11.5626 6.82811V3.76561L7.50012 2.23436L3.43762 3.76561V6.82811C3.43762 8.19269 3.81523 9.42446 4.57043 10.5234C5.32564 11.6224 6.30221 12.3698 7.50012 12.7656Z" fill="var(--fill-0, black)"/>
</g>
</svg>
