<svg preserveAspectRatio="none" width="100%" height="100%" overflow="visible" style="display: block;" viewBox="0 0 11.4286 15" fill="none" xmlns="http://www.w3.org/2000/svg">
<path id="Vector" d="M1.07143 15C0.776786 15 0.524583 14.8951 0.314822 14.6852C0.104941 14.4754 0 14.2232 0 13.9286V6.17857C0 5.88393 0.104941 5.63167 0.314822 5.42179C0.524583 5.21202 0.776786 5.10714 1.07143 5.10714H2.32143V3.39286C2.32143 2.45417 2.65244 1.65405 3.31446 0.9925C3.97637 0.330834 4.77696 0 5.71625 0C6.65542 0 7.45536 0.330834 8.11607 0.9925C8.77679 1.65405 9.10714 2.45417 9.10714 3.39286V5.10714H10.3571C10.6518 5.10714 10.904 5.21202 11.1139 5.42179C11.3237 5.63167 11.4286 5.88393 11.4286 6.17857V13.9286C11.4286 14.2232 11.3237 14.4754 11.1139 14.6852C10.904 14.8951 10.6518 15 10.3571 15H1.07143ZM1.07143 13.9286H10.3571V6.17857H1.07143V13.9286ZM6.6875 11.0352C6.95536 10.7729 7.08929 10.4576 7.08929 10.0893C7.08929 9.73214 6.95435 9.40774 6.68446 9.11607C6.41458 8.82441 6.09018 8.67857 5.71125 8.67857C5.33232 8.67857 5.00893 8.82441 4.74107 9.11607C4.47321 9.40774 4.33929 9.73512 4.33929 10.0982C4.33929 10.4613 4.47423 10.7738 4.74411 11.0357C5.01399 11.2976 5.33839 11.4286 5.71732 11.4286C6.09625 11.4286 6.41964 11.2974 6.6875 11.0352ZM3.39286 5.10714H8.03571V3.39286C8.03571 2.74798 7.81024 2.19988 7.35929 1.74857C6.90833 1.29714 6.36071 1.07143 5.71643 1.07143C5.07214 1.07143 4.52381 1.29714 4.07143 1.74857C3.61905 2.19988 3.39286 2.74798 3.39286 3.39286V5.10714Z" fill="var(--fill-0, black)"/>
</svg>
