<svg preserveAspectRatio="none" width="100%" height="100%" overflow="visible" style="display: block;" viewBox="0 0 14 14" fill="none" xmlns="http://www.w3.org/2000/svg">
<g id="Frame">
<path id="Vector" d="M6.60609 9.91669H7.48109V6.41669H6.60609V9.91669ZM7.34255 5.20335C7.43491 5.11391 7.48109 5.00308 7.48109 4.87085C7.48109 4.73037 7.435 4.61263 7.34284 4.51765C7.25067 4.42256 7.13643 4.37502 7.00013 4.37502C6.86382 4.37502 6.74949 4.42256 6.65713 4.51765C6.56477 4.61263 6.51859 4.73037 6.51859 4.87085C6.51859 5.00308 6.56467 5.11391 6.65684 5.20335C6.749 5.2928 6.86324 5.33752 6.99955 5.33752C7.13585 5.33752 7.25018 5.2928 7.34255 5.20335ZM7.00377 12.8334C6.19936 12.8334 5.44346 12.6802 4.73607 12.374C4.02858 12.0677 3.40991 11.6497 2.88005 11.1198C2.35018 10.59 1.93213 9.97094 1.62588 9.26277C1.31963 8.5546 1.1665 7.79792 1.1665 6.99273C1.1665 6.18753 1.31963 5.43085 1.62588 4.72269C1.93213 4.01452 2.35018 3.39794 2.88005 2.87294C3.40991 2.34794 4.02892 1.93231 4.73709 1.62606C5.44525 1.31981 6.20193 1.16669 7.00713 1.16669C7.81232 1.16669 8.569 1.31981 9.27717 1.62606C9.98534 1.93231 10.6019 2.34794 11.1269 2.87294C11.6519 3.39794 12.0675 4.0153 12.3738 4.72502C12.68 5.43474 12.8332 6.19176 12.8332 6.99608C12.8332 7.8005 12.68 8.5564 12.3738 9.26379C12.0675 9.97128 11.6519 10.5891 11.1269 11.1172C10.6019 11.6452 9.98456 12.0633 9.27484 12.3714C8.56512 12.6794 7.80809 12.8334 7.00377 12.8334ZM7.00713 11.9584C8.38282 11.9584 9.55192 11.4747 10.5144 10.5073C11.4769 9.53995 11.9582 8.36842 11.9582 6.99273C11.9582 5.61703 11.4778 4.44794 10.5172 3.48544C9.55654 2.52294 8.38409 2.04169 6.99984 2.04169C5.629 2.04169 4.45991 2.52201 3.49255 3.48267C2.52518 4.44332 2.0415 5.61577 2.0415 7.00002C2.0415 8.37085 2.52518 9.53995 3.49255 10.5073C4.45991 11.4747 5.63143 11.9584 7.00713 11.9584Z" fill="var(--fill-0, black)"/>
</g>
</svg>
