<svg preserveAspectRatio="none" width="100%" height="100%" overflow="visible" style="display: block;" viewBox="0 0 12 12" fill="none" xmlns="http://www.w3.org/2000/svg">
<path id="Vector" d="M3.645 11.5275C2.915 11.2125 2.28 10.785 1.74 10.245C1.2 9.705 0.775 9.0675 0.465 8.3325C0.155 7.5975 0 6.81 0 5.97C0 5.13 0.155 4.3475 0.465 3.6225C0.775 2.8975 1.2 2.265 1.74 1.725C2.28 1.185 2.915 0.7625 3.645 0.4575C4.375 0.1525 5.16 0 6 0C6.84 0 7.625 0.1525 8.355 0.4575C9.085 0.7625 9.72 1.185 10.26 1.725C10.8 2.265 11.225 2.8975 11.535 3.6225C11.845 4.3475 12 5.13 12 5.97C12 6.81 11.845 7.5975 11.535 8.3325C11.225 9.0675 10.8 9.705 10.26 10.245C9.72 10.785 9.085 11.2125 8.355 11.5275C7.625 11.8425 6.84 12 6 12C5.16 12 4.375 11.8425 3.645 11.5275ZM6 11.13C6.35 10.77 6.6425 10.3575 6.8775 9.8925C7.1125 9.4275 7.305 8.875 7.455 8.235H4.56C4.7 8.835 4.8875 9.375 5.1225 9.855C5.3575 10.335 5.65 10.76 6 11.13ZM4.725 10.95C4.475 10.57 4.26 10.16 4.08 9.72C3.9 9.28 3.75 8.785 3.63 8.235H1.38C1.76 8.945 2.2 9.5025 2.7 9.9075C3.2 10.3125 3.875 10.66 4.725 10.95ZM7.29 10.935C8.01 10.705 8.6575 10.36 9.2325 9.9C9.8075 9.44 10.27 8.885 10.62 8.235H8.385C8.255 8.775 8.1025 9.265 7.9275 9.705C7.7525 10.145 7.54 10.555 7.29 10.935ZM1.08 7.335H3.465C3.435 7.065 3.4175 6.8225 3.4125 6.6075C3.4075 6.3925 3.405 6.18 3.405 5.97C3.405 5.72 3.41 5.4975 3.42 5.3025C3.43 5.1075 3.45 4.89 3.48 4.65H1.08C1.01 4.89 0.9625 5.105 0.9375 5.295C0.9125 5.485 0.9 5.71 0.9 5.97C0.9 6.23 0.9125 6.4625 0.9375 6.6675C0.9625 6.8725 1.01 7.095 1.08 7.335ZM4.395 7.335H7.62C7.66 7.025 7.685 6.7725 7.695 6.5775C7.705 6.3825 7.71 6.18 7.71 5.97C7.71 5.77 7.705 5.5775 7.695 5.3925C7.685 5.2075 7.66 4.96 7.62 4.65H4.395C4.355 4.96 4.33 5.2075 4.32 5.3925C4.31 5.5775 4.305 5.77 4.305 5.97C4.305 6.18 4.31 6.3825 4.32 6.5775C4.33 6.7725 4.355 7.025 4.395 7.335ZM8.52 7.335H10.92C10.99 7.095 11.0375 6.8725 11.0625 6.6675C11.0875 6.4625 11.1 6.23 11.1 5.97C11.1 5.71 11.0875 5.485 11.0625 5.295C11.0375 5.105 10.99 4.89 10.92 4.65H8.535C8.565 5 8.585 5.2675 8.595 5.4525C8.605 5.6375 8.61 5.81 8.61 5.97C8.61 6.19 8.6025 6.3975 8.5875 6.5925C8.5725 6.7875 8.55 7.035 8.52 7.335ZM8.37 3.75H10.62C10.29 3.06 9.8375 2.485 9.2625 2.025C8.6875 1.565 8.025 1.24 7.275 1.05C7.525 1.42 7.7375 1.82 7.9125 2.25C8.0875 2.68 8.24 3.18 8.37 3.75ZM4.56 3.75H7.47C7.36 3.22 7.175 2.7075 6.915 2.2125C6.655 1.7175 6.35 1.28 6 0.9C5.68 1.17 5.41 1.525 5.19 1.965C4.97 2.405 4.76 3 4.56 3.75ZM1.38 3.75H3.645C3.755 3.21 3.895 2.7275 4.065 2.3025C4.235 1.8775 4.45 1.465 4.71 1.065C3.96 1.255 3.305 1.575 2.745 2.025C2.185 2.475 1.73 3.05 1.38 3.75Z" fill="var(--fill-0, black)"/>
</svg>
